/* XPM */
static char *result[] = {
/* columns rows colors chars-per-pixel */
"64 64 170 2 ",
"   c #053D10",
".  c #043E10",
"X  c #053F11",
"o  c #083D14",
"O  c #083E14",
"+  c #093E14",
"@  c #083F14",
"#  c #093F14",
"$  c #093F15",
"%  c #0A3F14",
"&  c #0B3F15",
"*  c #094015",
"=  c #0A4015",
"-  c #0B4015",
";  c #0A4516",
":  c #0B4617",
">  c #0B4817",
",  c #0B4C19",
"<  c #0B4D19",
"1  c #0B4F1A",
"2  c #0C4D19",
"3  c #0C4E19",
"4  c #0C4F1A",
"5  c #0C501A",
"6  c #0D521B",
"7  c #0C531B",
"8  c #0D531B",
"9  c #0B541C",
"0  c #0B551C",
"q  c #0D551C",
"w  c #0E541C",
"e  c #0E551C",
"r  c #0C5B1E",
"t  c #0E5B1E",
"y  c #0B5F1C",
"u  c #0C5C1E",
"i  c #0E5C1E",
"p  c #0E5D1E",
"a  c #0F5C1F",
"s  c #0D5F1F",
"d  c #0E5E1F",
"f  c #0F5E1F",
"g  c #0E5F1F",
"h  c #0F5F1F",
"j  c #12501F",
"k  c #174320",
"l  c #194321",
"z  c #0F6220",
"x  c #0E6621",
"c  c #0F6621",
"v  c #0E6822",
"b  c #0E6922",
"n  c #0E6D24",
"m  c #0F6D24",
"M  c #0F6D25",
"N  c #0E6E24",
"B  c #0E6E25",
"V  c #0F6E25",
"C  c #106621",
"Z  c #116D25",
"A  c #126E25",
"S  c #107024",
"D  c #107124",
"F  c #107125",
"G  c #127225",
"H  c #127627",
"J  c #137827",
"K  c #137A28",
"L  c #137B28",
"P  c #127D28",
"I  c #137C29",
"U  c #127D29",
"Y  c #137E2A",
"T  c #137F2A",
"R  c #594A22",
"E  c #5A5024",
"W  c #5B5727",
"Q  c #5B5827",
"!  c #6B4D25",
"~  c #794E27",
"^  c #794E28",
"/  c #7B4E28",
"(  c #7A4F28",
")  c #7B4F28",
"_  c #7B5028",
"`  c #7C5028",
"'  c #7E5129",
"]  c #7E5229",
"[  c #72622D",
"{  c #575154",
"}  c #585055",
"|  c #585155",
" . c #61535C",
".. c #4E6552",
"X. c #905D2F",
"o. c #956031",
"O. c #966131",
"+. c #9B6433",
"@. c #9D6433",
"#. c #9E6634",
"$. c #9F6734",
"%. c #817033",
"&. c #827034",
"*. c #827134",
"=. c #9E7137",
"-. c #A36935",
";. c #A36A35",
":. c #A46A36",
">. c #A66C36",
",. c #A76C37",
"<. c #B0723A",
"1. c #B1723A",
"2. c #B1733A",
"3. c #B3723A",
"4. c #B4733A",
"5. c #12802A",
"6. c #12822A",
"7. c #12832B",
"8. c #14832B",
"9. c #14842B",
"0. c #15852C",
"q. c #15862C",
"w. c #13892C",
"e. c #168D2E",
"r. c #15902E",
"t. c #15902F",
"y. c #15912F",
"u. c #15922F",
"i. c #15932F",
"p. c #19B63A",
"a. c #1CB53C",
"s. c #1CB63C",
"d. c #1DBD3E",
"f. c #1EC03F",
"g. c #19C83E",
"h. c #22BF43",
"j. c #35BF51",
"k. c #43AA58",
"l. c #41BA5A",
"z. c #48B85F",
"x. c #4AB760",
"c. c #4AB860",
"v. c #63AF71",
"b. c #1DC140",
"n. c #1EC140",
"m. c #1EC340",
"M. c #1CC740",
"N. c #1DC741",
"B. c #1EC741",
"V. c #1FC642",
"C. c #1EC742",
"Z. c #1FC742",
"A. c #1CC940",
"S. c #1FC842",
"D. c #1FC942",
"F. c #C76BB1",
"G. c #D56EBC",
"H. c #D86FBE",
"J. c #EE7CD3",
"K. c #EC7ED2",
"L. c #F07CD5",
"P. c #F17CD5",
"I. c #F07DD5",
"U. c #FB77DB",
"Y. c #FB77DC",
"T. c #FF77DF",
"R. c #FF78DF",
"E. c #FF78E1",
"W. c #E082C9",
"Q. c None",
/* pixels */
"Q.Q.Q.Q.Q.Q.Q.Q.Q.Q.Q.Q.Q.Q.Q.Q.Q.Q.Q.Q.Q.Q.Q.Q.Q.Q.Q.Q.Q.Q.y.y.y.y.y.y.y.y.y.Q.Q.Q.Q.Q.Q.Q.Q.Q.Q.Q.Q.Q.Q.Q.Q.Q.Q.Q.Q.Q.Q.Q.Q.Q.",
"Q.Q.Q.Q.Q.Q.Q.Q.Q.Q.Q.Q.Q.Q.Q.Q.Q.Q.Q.Q.Q.Q.Q.Q.Q.Q.Q.Q.Q.Q.y.y.y.r.y.y.y.y.y.Q.Q.Q.Q.Q.Q.Q.Q.Q.Q.Q.Q.Q.Q.Q.Q.Q.Q.Q.Q.Q.Q.Q.Q.Q.",
"Q.Q.Q.Q.Q.Q.Q.Q.Q.Q.Q.Q.Q.Q.Q.Q.Q.Q.Q.Q.Q.Q.Q.Q.Q.Q.Q.Q.Q.y.y.y.y.y.w.5.5.5.5.b Q.Q.Q.Q.Q.Q.Q.Q.Q.Q.Q.Q.Q.Q.Q.Q.Q.Q.Q.Q.Q.Q.Q.Q.",
"Q.Q.Q.Q.Q.Q.Q.Q.Q.Q.Q.Q.Q.Q.Q.Q.Q.Q.Q.Q.Q.Q.Q.Q.Q.y.y.y.y.y.y.y.y.y.5.n n n V 9 @ * * * Q.Q.Q.Q.Q.Q.Q.Q.Q.Q.Q.Q.Q.Q.Q.Q.Q.Q.Q.Q.",
"Q.Q.Q.Q.Q.Q.Q.Q.Q.Q.Q.Q.Q.Q.Q.Q.Q.Q.Q.Q.Q.Q.Q.Q.Q.y.y.y.y.y.y.y.y.y.5.n V V V 9 @ * * * Q.Q.Q.Q.Q.Q.Q.Q.Q.Q.Q.Q.Q.Q.Q.Q.Q.Q.Q.Q.",
"Q.Q.Q.Q.Q.Q.Q.Q.Q.Q.Q.Q.Q.Q.Q.Q.Q.Q.Q.Q.Q.Q.Q.Q.Q.y.y.y.y.y.y.y.y.y.5.n V V V 9 @ * * * Q.Q.Q.Q.Q.Q.Q.Q.Q.Q.Q.Q.Q.Q.Q.Q.Q.Q.Q.Q.",
"Q.Q.Q.Q.Q.Q.Q.Q.Q.Q.Q.Q.Q.Q.Q.Q.Q.Q.Q.Q.Q.Q.Q.Q.Q.y.y.y.y.y.y.y.y.y.5.n V V V 9 @ * * * Q.Q.Q.Q.Q.Q.Q.Q.Q.Q.Q.Q.Q.Q.Q.Q.Q.Q.Q.Q.",
"Q.Q.Q.Q.Q.Q.Q.Q.Q.Q.Q.Q.Q.Q.Q.Q.Q.Q.Q.Q.Q.Q.Q.Q.Q.y.y.y.y.y.y.y.y.y.5.n V V V 9 @ * * * Q.Q.Q.Q.Q.Q.Q.Q.Q.Q.Q.Q.Q.Q.Q.Q.Q.Q.Q.Q.",
"Q.Q.Q.Q.Q.Q.Q.Q.Q.Q.Q.Q.Q.Q.Q.Q.Q.Q.Q.Q.Q.Q.Q.Q.Q.y.y.y.y.y.y.y.y.y.5.n V V V 9 @ * * * Q.Q.Q.Q.Q.Q.Q.Q.Q.Q.Q.Q.Q.Q.Q.Q.Q.Q.Q.Q.",
"Q.Q.Q.Q.Q.Q.Q.Q.Q.Q.Q.Q.Q.Q.Q.Q.Q.Q.Q.Q.Q.Q.Q.Q.Q.y.y.y.y.y.y.y.y.y.5.n V V V 9 @ * * * Q.Q.Q.Q.Q.Q.Q.Q.Q.Q.Q.Q.Q.Q.Q.Q.Q.Q.Q.Q.",
"Q.Q.Q.Q.Q.Q.Q.Q.Q.Q.Q.Q.Q.Q.Q.Q.Q.Q.Q.Q.Q.Q.Q.Q.Q.y.y.y.y.y.y.y.y.y.5.n V V V 9 @ * * * Q.Q.Q.Q.Q.Q.Q.Q.Q.Q.Q.Q.Q.Q.Q.Q.Q.Q.Q.Q.",
"Q.Q.Q.Q.Q.Q.Q.Q.Q.Q.Q.Q.Q.Q.Q.Q.Q.Q.Q.Q.Q.Q.Q.Q.Q.y.y.y.t.y.y.y.y.y.5.n V V V 9 @ * * * Q.Q.Q.Q.Q.Q.Q.Q.Q.Q.Q.Q.Q.Q.Q.Q.Q.Q.Q.Q.",
"Q.Q.Q.Q.Q.Q.Q.Q.Q.Q.Q.Q.Q.Q.Q.Q.Q.Q.Q.Q.Q.Q.Q.Q.Q.y.y.y.y.P s s s s x V V V V 9 @ * * * Q.Q.Q.Q.Q.Q.Q.Q.Q.Q.Q.Q.Q.Q.Q.Q.Q.Q.Q.Q.",
"Q.Q.Q.Q.Q.Q.Q.Q.Q.Q.Q.Q.Q.Q.Q.Q.Q.Q.Q.Q.Q.Q.Q.Q.Q.y.y.y.u.S O O O o 9 V V V V 9 @ * * * Q.Q.Q.Q.Q.Q.Q.Q.Q.Q.Q.Q.Q.Q.Q.Q.Q.Q.Q.Q.",
"Q.Q.Q.Q.Q.Q.Q.Q.Q.Q.Q.Q.Q.Q.Q.Q.Q.Q.Q.Q.Q.Q.Q.Q.Q.y.y.y.u.D @ # * @ 0 V V V V 9 @ * * * Q.Q.Q.Q.Q.Q.Q.Q.Q.Q.Q.Q.Q.Q.Q.Q.Q.Q.Q.Q.",
"Q.Q.Q.Q.Q.Q.Q.Q.Q.Q.Q.Q.Q.Q.Q.Q.Q.Q.Q.Q.Q.Q.Q.Q.Q.y.y.y.u.D @ # * @ 0 V V V V 9 @ * * * Q.Q.Q.Q.Q.Q.Q.Q.Q.Q.R.R.R.R.R.Q.Q.Q.Q.Q.",
"Q.Q.Q.Q.Q.Q.Q.Q.Q.Q.Q.Q.Q.Q.Q.Q.Q.Q.Q.Q.Q.Q.Q.Q.Q.y.y.y.u.D @ # * @ 0 V V V V 9 @ * * * Q.Q.Q.Q.Q.Q.Q.Q.Q.Q.U.Y.Y.Y.Y.Q.Q.Q.Q.Q.",
"Q.Q.Q.Q.Q.Q.Q.Q.Q.Q.Q.Q.Q.Q.Q.Q.Q.Q.Q.Q.Q.Q.Q.Q.Q.y.y.y.u.D @ # * @ 0 V V V V 9 @ * * * Q.Q.Q.Q.Q.Q.Z.Z.Z.h...} | {  .H.E.R.R.R.",
"Q.Q.Q.Q.Q.Q.Q.Q.Q.Q.Q.Q.Q.Q.Q.Q.Q.Q.Q.Q.Q.Q.Q.Q.Q.y.y.y.u.D @ # * @ 0 V V V V 9 @ * * * Q.Q.Q.Q.Q.Z.Z.Z.Z.b.y   X . l G.E.R.R.R.",
"Q.Q.Q.Q.Q.Q.Q.Q.Q.Q.Q.Q.Q.Q.Q.Q.Q.Q.Q.Q.Q.Q.Q.Q.Q.y.y.y.u.D @ # * @ 0 V V V V 9 @ * * * Q.Q.Q.Q.Q.Z.Z.Z.Z.n.g + = # k F.E.R.R.R.",
"Q.Q.Q.Q.Q.Q.Q.Q.Q.Q.Q.Q.Q.Q.Q.Q.Q.Q.Q.Q.Q.Q.Q.Q.Q.y.y.y.u.D @ # * @ 0 V V V V 9 @ * * * Q.Q.Q.Q.Q.Z.Z.Z.Z.n.g + = # = Q.Q.Q.Q.Q.",
"Q.Q.Q.Q.Q.Q.Q.Q.Q.Q.Q.Q.Q.Q.Q.Q.Q.Q.Q.Q.Q.Q.Q.Q.Q.y.y.y.u.D @ # * @ 0 V V V V 9 @ * * * Q.Q.Q.Q.Q.n.m.m.m.d.d + = = # Q.Q.Q.Q.Q.",
"Q.Q.Q.Q.Q.Q.Q.Q.Q.Q.Q.Q.Q.Q.Q.Q.Q.Q.Q.Q.Q.Q.Q.Q.Q.y.y.y.u.D @ # * @ 0 V V V V 9 @ * $ @ 5 f f f f G J J J H 2 # = = = Q.Q.Q.Q.Q.",
"Q.Q.Q.Q.Q.Q.Q.Q.Q.Q.Q.Q.Q.Q.Q.Q.Q.Q.Q.Q.Q.Q.Q.Q.Q.y.y.y.u.D @ # * @ 0 V V V V 9 @ * $ @ 7 h f f f p i i p t : # = = = Q.Q.Q.Q.Q.",
"Q.Q.Q.Q.Q.Q.Q.Q.Q.Q.Q.Q.Q.Q.Q.Q.Q.Q.Q.Q.Q.Q.Q.Q.Q.y.y.y.u.D @ # * @ 0 V V V V 9 @ * $ @ , 8 8 8 8 8 8 8 8 6 : # = = = Q.Q.Q.Q.Q.",
"Q.Q.Q.Q.Q.T.T.T.T.T.Q.Q.Q.Q.Q.Q.Q.Q.Q.Q.Q.Q.Q.Q.Q.y.y.y.u.D @ # * @ 0 V V V V 9 @ * * * * = = = = = = = = = Q.Q.Q.Q.Q.Q.Q.Q.Q.Q.",
"Q.Q.Q.Q.Q.P.I.L.I.J.Q.Q.Q.Q.Q.Q.Q.Q.Q.Q.Q.Q.Q.Q.Q.y.y.y.u.D @ # * @ 0 V V V V 9 @ * * * # % # # # # # # # # Q.Q.Q.Q.Q.Q.Q.Q.Q.Q.",
"R.R.R.T.K.v.z.x.c.k.j # = = = Q.Q.Q.Q.Q.Q.Q.Q.Q.Q.y.y.y.u.D @ # * @ 0 V V V V 9 @ * * * Q.Q.Q.Q.Q.Q.Q.Q.Q.Q.Q.Q.Q.Q.Q.Q.Q.Q.Q.Q.",
"R.R.R.T.K.l.g.M.A.p.3 # = = = Q.Q.Q.Q.Q.Q.Q.Q.Q.Q.y.y.y.i.F @ # * @ 0 V V V V 9 @ * * * Q.Q.Q.Q.Q.Q.Q.Q.Q.Q.Q.Q.Q.Q.Q.Q.Q.Q.Q.Q.",
"R.R.R.T.W.j.N.Z.S.a.4 # = = = Q.Q.Q.Q.Q.Q.Q.Q.Q.Q.6.6.6.7.v @ # * @ 0 V V V V 9 @ * * * Q.Q.Q.Q.Q.Q.Q.Q.Q.Q.Q.Q.Q.Q.Q.Q.Q.Q.Q.Q.",
"Q.Q.Q.Q.Q.B.V.Z.S.a.3 + # # # Q.Q.Q.Q.Q.Q.Q.Q.Q.Q.n n n V r @ $ * @ 0 V V V V 9 @ * * * Q.Q.Q.Q.Q.Q.Q.Q.Q.Q.Q.Q.Q.Q.Q.Q.Q.Q.Q.Q.",
"Q.Q.Q.Q.Q.C.Z.Z.S.s.q ; : : > Q.Q.Q.Q.Q.Q.Q.Q.Q.Q.V M V V u @ $ * @ 0 V V V V 9 @ * * * Q.Q.Q.Q.Q.Q.Q.Q.Q.Q.Q.Q.Q.Q.Q.Q.Q.Q.Q.Q.",
"Q.Q.Q.Q.Q.Z.Z.Z.Z.d.8.K L L I 9.0.0.0.0.0.0.0.0.U V n V V u @ $ * @ 0 V V V V 9 @ * * * Q.Q.Q.Q.Q.Q.Q.Q.Q.Q.Q.Q.Q.Q.Q.Q.Q.Q.Q.Q.",
"Q.Q.Q.Q.Q.S.S.S.D.f.e.q.q.q.q.q.0.0.0.0.0.0.0.q.Y V n V V u @ $ * @ 0 V V V V 9 @ * * * Q.Q.Q.Q.Q.Q.Q.Q.Q.Q.Q.Q.Q.Q.Q.Q.Q.Q.Q.Q.",
"Q.Q.Q.Q.Q.8.8.8.8.T C z z z z z z z z z z z z z c m V V V u @ $ * @ 0 V V V V 9 @ * * * Q.Q.Q.Q.Q.Q.Q.Q.Q.Q.Q.Q.Q.Q.Q.Q.Q.Q.Q.Q.",
"Q.Q.Q.Q.Q.+ + + + + + # # # # # # # # # # # # + < n V V V u @ $ * @ 0 V V V V 9 @ * * * Q.Q.Q.Q.Q.Q.Q.Q.Q.Q.Q.Q.Q.Q.Q.Q.Q.Q.Q.Q.",
"Q.Q.Q.Q.Q.= = = = = = = = = = = = = = = = = = # 1 n V V V u @ $ * @ 0 V V V V 9 @ * * * Q.Q.Q.Q.Q.Q.Q.Q.Q.Q.Q.Q.Q.Q.Q.Q.Q.Q.Q.Q.",
"Q.Q.Q.Q.Q.Q.Q.Q.Q.Q.Q.Q.Q.Q.Q.Q.Q.Q.Q.Q.Q.Q.Q.Q.Q.n V V V u @ $ * @ 0 V V V V 9 @ * * * Q.Q.Q.Q.Q.Q.Q.Q.Q.Q.Q.Q.Q.Q.Q.Q.Q.Q.Q.Q.",
"Q.Q.Q.Q.Q.Q.Q.Q.Q.Q.Q.Q.Q.Q.Q.Q.Q.Q.Q.Q.Q.Q.Q.Q.Q.V V V V u @ $ * @ 0 V V V V 9 @ * * * Q.Q.Q.Q.Q.Q.Q.Q.Q.Q.Q.Q.Q.Q.Q.Q.Q.Q.Q.Q.",
"Q.Q.Q.Q.Q.Q.Q.Q.Q.Q.Q.Q.Q.Q.Q.Q.Q.Q.Q.Q.Q.Q.Q.Q.Q.V V V V u @ $ * @ 0 V V V V 9 @ * * * Q.Q.Q.Q.Q.Q.Q.Q.Q.Q.Q.Q.Q.Q.Q.Q.Q.Q.Q.Q.",
"Q.Q.Q.Q.Q.Q.Q.Q.Q.Q.Q.Q.Q.Q.Q.Q.Q.Q.Q.Q.Q.Q.Q.Q.Q.V V V V u @ $ * @ 0 V V V V 9 @ * * * Q.Q.Q.Q.Q.Q.Q.Q.Q.Q.Q.Q.Q.Q.Q.Q.Q.Q.Q.Q.",
"Q.Q.Q.Q.Q.Q.Q.Q.Q.Q.Q.Q.Q.Q.Q.Q.Q.Q.Q.Q.Q.Q.Q.Q.Q.V V V V u @ $ * @ 0 V V V V 9 @ * * * Q.Q.Q.Q.Q.Q.Q.Q.Q.Q.Q.Q.Q.Q.Q.Q.Q.Q.Q.Q.",
"Q.Q.Q.Q.Q.Q.Q.Q.Q.Q.Q.Q.Q.Q.Q.Q.Q.Q.Q.Q.Q.Q.Q.Q.Q.V V V V u @ $ * @ 0 V V V V 9 @ * * * Q.Q.Q.Q.Q.Q.Q.Q.Q.Q.Q.Q.Q.Q.Q.Q.Q.Q.Q.Q.",
"Q.Q.Q.Q.Q.Q.Q.Q.Q.Q.Q.Q.Q.Q.Q.Q.Q.Q.Q.Q.Q.Q.Q.Q.Q.V V V V u @ $ * @ 0 V V V V 9 @ * * * Q.Q.Q.Q.Q.Q.Q.Q.Q.Q.Q.Q.Q.Q.Q.Q.Q.Q.Q.Q.",
"Q.Q.Q.Q.Q.Q.Q.Q.Q.Q.Q.Q.Q.Q.Q.Q.Q.Q.Q.Q.Q.Q.Q.Q.Q.V V V V u @ $ * @ 0 V V V V 9 @ * * * Q.Q.Q.Q.Q.Q.Q.Q.Q.Q.Q.Q.Q.Q.Q.Q.Q.Q.Q.Q.",
"Q.Q.Q.Q.Q.Q.Q.Q.Q.Q.Q.Q.Q.Q.Q.Q.Q.Q.Q.Q.Q.Q.Q.Q.Q.V V V V u @ $ * @ 0 V V V V 9 @ * * * Q.Q.Q.Q.Q.Q.Q.Q.Q.Q.Q.Q.Q.Q.Q.Q.Q.Q.Q.Q.",
"Q.Q.Q.Q.Q.Q.Q.Q.Q.Q.Q.Q.Q.Q.Q.Q.Q.Q.Q.Q.Q.Q.Q.Q.Q.V V V V u @ $ * @ 0 V V V V 9 @ * * * Q.Q.Q.Q.Q.Q.Q.Q.Q.Q.Q.Q.Q.Q.Q.Q.Q.Q.Q.Q.",
"Q.Q.Q.Q.Q.Q.Q.Q.Q.Q.Q.Q.Q.Q.Q.Q.Q.Q.Q.Q.Q.Q.Q.Q.Q.n n n B u @ @ @ @ 0 B N N B 9 @ @ @ @ Q.Q.Q.Q.Q.Q.Q.Q.Q.Q.Q.Q.Q.Q.Q.Q.Q.Q.Q.Q.",
"Q.Q.Q.Q.Q.Q.Q.Q.Q.Q.Q.Q.Q.Q.Q.Q.Q.Q.Q.Q.Q.Q.Q.Q.Q.A A A A a - - - & e Z Z Z Z w & - - - Q.Q.Q.Q.Q.Q.Q.Q.Q.Q.Q.Q.Q.Q.Q.Q.Q.Q.Q.Q.",
"Q.Q.Q.Q.Q.Q.Q.Q.Q.Q.Q.Q.Q.Q.Q.<.<.<.<.<.<.<.<.<.=.&.%.%.*.[ R R R R E Q W W Q E R R R R ! ( ( ( ( ( ( ( ( ( Q.Q.Q.Q.Q.Q.Q.Q.Q.Q.",
"Q.Q.Q.Q.Q.Q.Q.Q.Q.Q.Q.Q.Q.Q.Q.<.<.<.<.<.<.<.<.<.1.3.3.3.4.@.) ) ) ) / / / / / / ) ) ) ) ( ( ( ( ( ( ( ( ( ( Q.Q.Q.Q.Q.Q.Q.Q.Q.Q.",
"Q.Q.Q.Q.Q.Q.Q.Q.Q.Q.Q.Q.Q.Q.Q.#.#.#.#.#.#.#.#.#.#.#.#.#.$.X.~ ^ ( ( ( ( ( ( ( ( ( ( ( ( ( ( ( ( ( ( ( ( ( ( Q.Q.Q.Q.Q.Q.Q.Q.Q.Q.",
"Q.Q.Q.Q.Q.Q.Q.Q.Q.Q.Q.Q.Q.Q.Q.( ( ( ( ( ( ( ( ( ( ( ( ( ( ( ( ( ( ( ( ( ( ( ( ( ( ( ( ( ( ( ( ( ( ( ( ( ( ( Q.Q.Q.Q.Q.Q.Q.Q.Q.Q.",
"Q.Q.Q.Q.Q.Q.Q.Q.Q.Q.Q.Q.Q.Q.Q.~ ~ ~ ~ ( ` ` ` ` _ ~ ~ ~ ~ ~ ( ( ( ( ( ( ( ( ( ( ( ( ( ( ( ( ( ( ( ( ( ( ( ( Q.Q.Q.Q.Q.Q.Q.Q.Q.Q.",
"Q.Q.Q.Q.Q.Q.Q.Q.Q.Q.Q.Q.Q.Q.Q.Q.Q.Q.Q.Q.-.;.;.:.O.( ~ ( ( ( ( ( ( ( ( ( ( ( ( ( ( ( ( ( ( ( ( ( ( Q.Q.Q.Q.Q.Q.Q.Q.Q.Q.Q.Q.Q.Q.Q.",
"Q.Q.Q.Q.Q.Q.Q.Q.Q.Q.Q.Q.Q.Q.Q.Q.Q.Q.Q.Q.<.<.<.2.$.( ~ ( ( ( ( ( ( ( ( ( ( ( ( ( ( ( ( ( ( ( ( ( ( Q.Q.Q.Q.Q.Q.Q.Q.Q.Q.Q.Q.Q.Q.Q.",
"Q.Q.Q.Q.Q.Q.Q.Q.Q.Q.Q.Q.Q.Q.Q.Q.Q.Q.Q.Q.<.<.<.<.$.( ~ ( ( ( ( ( ( ( ( ( ( ( ( ( ( ( ( ( ( ( ( ( ( Q.Q.Q.Q.Q.Q.Q.Q.Q.Q.Q.Q.Q.Q.Q.",
"Q.Q.Q.Q.Q.Q.Q.Q.Q.Q.Q.Q.Q.Q.Q.Q.Q.Q.Q.Q.<.<.<.<.$.( ~ ~ ~ ~ ( ( ( ( ( ( ( ( ( ( ( ( ( ( ( ( ( ( ( Q.Q.Q.Q.Q.Q.Q.Q.Q.Q.Q.Q.Q.Q.Q.",
"Q.Q.Q.Q.Q.Q.Q.Q.Q.Q.Q.Q.Q.Q.Q.Q.Q.Q.Q.Q.<.<.<.<.$.] ' ' ' ` ~ ( ( ( ( ( ( ( ( ( ( ( ( ( ( ( ( ( ( Q.Q.Q.Q.Q.Q.Q.Q.Q.Q.Q.Q.Q.Q.Q.",
"Q.Q.Q.Q.Q.Q.Q.Q.Q.Q.Q.Q.Q.Q.Q.Q.Q.Q.Q.Q.Q.Q.Q.Q.Q.>.>.>.,.o.~ ^ ( ( ( ( ( ( ( ( ( ( ( ( Q.Q.Q.Q.Q.Q.Q.Q.Q.Q.Q.Q.Q.Q.Q.Q.Q.Q.Q.Q.",
"Q.Q.Q.Q.Q.Q.Q.Q.Q.Q.Q.Q.Q.Q.Q.Q.Q.Q.Q.Q.Q.Q.Q.Q.Q.<.<.<.2.+.~ ^ ( ( ( ( ( ( ( ( ( ( ( ( Q.Q.Q.Q.Q.Q.Q.Q.Q.Q.Q.Q.Q.Q.Q.Q.Q.Q.Q.Q.",
"Q.Q.Q.Q.Q.Q.Q.Q.Q.Q.Q.Q.Q.Q.Q.Q.Q.Q.Q.Q.Q.Q.Q.Q.Q.<.<.<.<.+.~ ^ ( ( ( ( ( ( ( ( ( ( ( ( Q.Q.Q.Q.Q.Q.Q.Q.Q.Q.Q.Q.Q.Q.Q.Q.Q.Q.Q.Q.",
"Q.Q.Q.Q.Q.Q.Q.Q.Q.Q.Q.Q.Q.Q.Q.Q.Q.Q.Q.Q.Q.Q.Q.Q.Q.<.<.<.<.+.~ ^ ( ( ( ( ( ( ( ( ( ( ( ( Q.Q.Q.Q.Q.Q.Q.Q.Q.Q.Q.Q.Q.Q.Q.Q.Q.Q.Q.Q.",
"Q.Q.Q.Q.Q.Q.Q.Q.Q.Q.Q.Q.Q.Q.Q.Q.Q.Q.Q.Q.Q.Q.Q.Q.Q.<.<.<.<.+.~ ^ ( ( ( ( ( ( ( ( ( ( ( ( Q.Q.Q.Q.Q.Q.Q.Q.Q.Q.Q.Q.Q.Q.Q.Q.Q.Q.Q.Q."
};
