/* XPM */
static char *result[] = {
/* columns rows colors chars-per-pixel */
"64 64 222 2 ",
"   c black",
".  c #010101",
"X  c #020202",
"o  c gray1",
"O  c #040404",
"+  c gray2",
"@  c #060606",
"#  c #070707",
"$  c gray3",
"%  c #090909",
"&  c gray4",
"*  c #0B0B0B",
"=  c #0C0C0C",
"-  c gray5",
";  c #0E0E0E",
":  c gray6",
">  c #111111",
",  c gray7",
"<  c #131313",
"1  c gray8",
"2  c #151515",
"3  c #161616",
"4  c gray9",
"5  c #191919",
"6  c gray10",
"7  c #1B1B1B",
"8  c gray11",
"9  c #1D1D1D",
"0  c #1E1E1E",
"q  c gray12",
"w  c #202020",
"e  c gray13",
"r  c #222222",
"t  c gray14",
"y  c #252525",
"u  c gray15",
"i  c #272727",
"p  c #282828",
"a  c gray16",
"s  c gray17",
"d  c #2C2C2C",
"f  c gray18",
"g  c gray19",
"h  c #313131",
"j  c #323232",
"k  c gray20",
"l  c #343434",
"z  c #353535",
"x  c gray21",
"c  c gray22",
"v  c #393939",
"b  c #3A3A3A",
"n  c gray23",
"m  c #3C3C3C",
"M  c gray24",
"N  c #3E3E3E",
"B  c #3F3F3F",
"V  c #414141",
"C  c gray26",
"Z  c #434343",
"A  c gray27",
"S  c #484848",
"D  c #494949",
"F  c gray29",
"G  c #4B4B4B",
"H  c #4C4C4C",
"J  c #4E4E4E",
"K  c gray31",
"L  c #505050",
"P  c #515151",
"I  c gray33",
"U  c #555555",
"Y  c #565656",
"T  c gray34",
"R  c #585858",
"E  c gray35",
"W  c #5A5A5A",
"Q  c #5B5B5B",
"!  c gray36",
"~  c #5D5D5D",
"^  c gray37",
"/  c #5F5F5F",
"(  c gray38",
")  c #626262",
"_  c gray39",
"`  c #646464",
"'  c #656565",
"]  c #676767",
"[  c #686868",
"{  c DimGray",
"}  c #6A6A6A",
"|  c gray42",
" . c #6D6D6D",
".. c gray43",
"X. c #6F6F6F",
"o. c gray44",
"O. c #717171",
"+. c #727272",
"@. c gray45",
"#. c #747474",
"$. c gray46",
"%. c #767676",
"&. c #777777",
"*. c gray47",
"=. c #797979",
"-. c gray48",
";. c #7B7B7B",
":. c #7C7C7C",
">. c gray49",
",. c #7E7E7E",
"<. c gray50",
"1. c #7F807F",
"2. c #808080",
"3. c #808180",
"4. c #818181",
"5. c gray51",
"6. c #838383",
"7. c #848484",
"8. c gray52",
"9. c #868686",
"0. c gray53",
"q. c #888888",
"w. c #898989",
"e. c gray54",
"r. c #8B8B8B",
"t. c gray55",
"y. c #8D8D8D",
"u. c #8E8E8E",
"i. c gray56",
"p. c #9B8A99",
"a. c #909090",
"s. c gray57",
"d. c #929292",
"f. c #939393",
"g. c gray58",
"h. c #959595",
"j. c gray59",
"k. c #979797",
"l. c #989898",
"z. c gray60",
"x. c #9A9A9A",
"c. c #9B9B9B",
"v. c gray61",
"b. c #9D9D9D",
"n. c gray62",
"m. c #9F9F9F",
"M. c #B692B2",
"N. c #A0A0A0",
"B. c gray63",
"V. c #A2A2A2",
"C. c gray64",
"Z. c #A5A5A5",
"A. c gray65",
"S. c #A7A7A7",
"D. c gray66",
"F. c #A9A9A9",
"G. c #AAAAAA",
"H. c gray67",
"J. c #ACACAC",
"K. c gray68",
"L. c #AEAEAE",
"P. c #AFAFAF",
"I. c gray69",
"U. c #B1B1B1",
"Y. c #B2B2B2",
"T. c gray70",
"R. c #B4B4B4",
"E. c gray71",
"W. c #B6B6B6",
"Q. c #B7B7B7",
"!. c gray72",
"~. c #B9B8B9",
"^. c #B9B9B9",
"/. c gray73",
"(. c #BBBBBB",
"). c #BCBCBC",
"_. c gray74",
"`. c gray",
"'. c gray75",
"]. c #BFC0BF",
"[. c #C0BFC0",
"{. c #C1BFC1",
"}. c #C2BEC1",
"|. c #C2BEC2",
" X c #C4BCC3",
".X c #C5BCC4",
"XX c #C9B9C7",
"oX c #CCB7C9",
"OX c #CDB6CB",
"+X c #D1B3CE",
"@X c #D0B5CD",
"#X c #D1B7CF",
"$X c #DDACD7",
"%X c #DFAAD9",
"&X c #D7B0D3",
"*X c #E6A2DE",
"=X c #E2A8DC",
"-X c #E1ABDC",
";X c #F69BEC",
":X c #F79AED",
">X c #FA99EE",
",X c #FA99EF",
"<X c #FC96F2",
"1X c #FD96F2",
"2X c #FF94F4",
"3X c #FF94F5",
"4X c #EBA3E3",
"5X c #E9A4E1",
"6X c #ECA4E3",
"7X c #C0C0C0",
"8X c #C0C1C0",
"9X c #C1C1C1",
"0X c #C0C2C0",
"qX c gray76",
"wX c #C2C3C2",
"eX c #C3C2C3",
"rX c #C3C3C3",
"tX c gray77",
"yX c #C5C5C5",
"uX c #C6C6C6",
"iX c gray78",
"pX c None",
/* pixels */
"pXpXpXpXpXpXpXpXpXpXpXpXpXpXpXpXpXpX    pXpXpXpXpXpXpXpXpXpXpXpXpXpX      pXpXpXpXpXpXpXpXpXpXpXpXpXpXpXpXpXpXpXpXpXpXpXpXpXpXpX",
"pXpXpXpXpXpXpXpXpXpXpXpXpXpXpXpXpXpX    pXpXpXpXpXpXpXpXpXpXpXpXpXpX      pXpXpXpXpXpXpXpXpXpXpXpXpXpXpXpXpXpXpXpXpXpXpXpXpXpXpX",
"pXpXpXpXpXpXpXpXpXpXpXpXpXpXpXpXpXa x z pXpXpXpXpXpXpXpXpXpXpXpXpXpXk x h pXpXpXpXpXpXpXpXpXpXpXpXpXpXpXpXpXpXpXpXpXpXpXpXpXpXpX",
"pXpXpXpXpXpXpXpXpXpXpXpXpXpXpX    ~ `.!.v     pXpXpXpXpXpXpXpX    , N.'.u.#     pXpXpXpXpXpXpXpXpXpXpXpXpXpXpXpXpXpXpXpXpXpXpXpX",
"pXpXpXpXpXpXpXpXpXpXpXpXpXpXpX    ^ rX).v     pXpXpXpXpXpXpXpX    , C.tXs.#     pXpXpXpXpXpXpXpXpXpXpXpXpXpXpXpXpXpXpXpXpXpXpXpX",
"pXpXpXpXpXpXpXpXpXpXpXpXpXpXpX    ^ qX_.' m b ; pXpXpXpXpXpXpXj N F J.tXs.#     pXpXpXpXpXpXpXpXpXpXpXpXpXpXpXpXpXpXpXpXpXpXpXpX",
"pXpXpXpXpXpXpXpXpXpXpXpXpXpXpX    ^ qX`.g.4.@.>             . R 6.0.W.rXs.#     pXpXpXpXpXpXpXpXpXpXpXpXpXpXpXpXpXpXpXpXpXpXpXpX",
"pXpXpXpXpXpXpXpXpXpXpXpXpXpXpXX   / qX`.f.2.@.< . X X X X X o R 5.0.W.rXs.% . X pXpXpXpXpXpXpXpXpXpXpXpXpXpXpXpXpXpXpXpXpXpXpXpX",
"pXpXpXpXpXpXpXpXpXpXpXpX    w T T r.9X'.Y.J.C.` R E E E E E W s.K.L._.9XA.~ W v     pXpXpXpXpXpXpXpXpXpXpXpXpXpXpXpXpXpXpXpXpXpX",
"pXpXpXpXpXpXpXpXpXpXpXpX    t ,.2.N.7X7X7X9X/.e.4.4.4.4.4.4.5.J.qX7X7X7XI.7.6.S     pXpXpXpXpXpXpXpXpXpXpXpXpXpXpXpXpXpXpXpXpXpX",
"pXpXpXpXpXpXpXpXpXpXpXpX    u 6.9.V.7X7X7X7X^.u.9.9.9.9.9.9.0.K.7X7X7X7XY.q.q.F     pXpXpXpXpXpXpXpXpXpXpXpXpXpXpXpXpXpXpXpXpXpX",
"pXpXpXpXpXpXpXpXpXpXpXpX    l T.Q.(.7X7X7X7X'.!.Q.Q.Q.Q.Q.Q.Q._.7X7X7X7X_.Q./.'     pXpXpXpXpXpXpXpXpXpXpXpXpXpXpXpXpXpXpXpXpXpX",
"pXpXpXpXpXpXpXpXpXpXpXpX    x ).7X7X'.7X7X'.7X7X7X7X7X7X7X7X7X7X'.7X7X'.7X7XrX}     pXpXpXpXpXpXpXpXpXpXpXpXpXpXpXpXpXpXpXpXpXpX",
"pXpXpXpXpXpXpXpXpXpXpXpXw 0 J ).7X7X7X7X7X7X7X7X7X7X7X7X7X7X7X7X7X7X7X7X7X7XqX=.q e 3 pXpXpXpXpXpXpXpXpXpXpXpXpXpXpXpXpXpXpXpXpX",
"pXpXpXpXpXpXpXpXpX    :  .;.i.`.7X7X7X7X7X7X7X7X7X7X7X7X7X7X7X7X7X7X7X7X7X7X9XB.;.;.s     pXpXpXpXpXpXpXpXpXpXpXpXpXpXpXpXpXpXpX",
"pXpXpXpXpXpXpXpXpX    : o.<.s.`.7X9XrXqX7X'.7X7X'.7XqXrX9X'.7X7X'.7XqXrXqX7X9XC.,.,.s     pXpXpXpXpXpXpXpXpXpXpXpXpXpXpXpXpXpXpX",
"pXpXpXpXpXpXpXpXpX    < r.n.S.'.9Xg.' [ Z.9X7X7X9XD.{ ' a.9X7X7X7XQ.#.` :.).7XI.b.v.x     pXpXpXpXpXpXpXpXpXpXpXpXpXpXpXpXpXpXpX",
"pXpXpXpXpXpXpXpXpX    4 G.qX7X].qX(   o 9.rX7X7XrXy.+   W qX7X7X9XK.8   f !.7X7X7X'.C     pXpXpXpXpXpXpXpXpXpXpXpXpXpXpXpXpXpXpX",
"pXpXpXpXpXpXpXpXpX    4 F.9X[.[.eX)   + 0.rX'.`.7Xt.#   W 7X_.'.9XK.0   g ~.{.[.7X`.V     pXpXpXpXpXpXpXpXpXpXpXpXpXpXpXpXpXpXpX",
"pXpXpXpXpXpXpXpXpX    4 F.8XoX5X6XM.3.5.K.9XU.K m L <.5.) M B j.qX/.e.1.p.*X4X&X].`.V     pXpXpXpXpXpXpXpXpXpXpXpXpXpXpXpXpXpXpX",
"pXpXpXpXpXpXpXpXpX    4 F.0X+X1X2X-XwXrX7X9XH.5   k _.uX]   X 5.rX7XqXwX#X<X3X=X].`.V     pXpXpXpXpXpXpXpXpXpXpXpXpXpXpXpXpXpXpX",
"pXpXpXpXpXpXpXpXpX* & r G.8X@X:X>X$X].7X7X9XK.p - B /.rX..: 1 q.qX7X7X].OX;X,X%X].`.D $ * pXpXpXpXpXpXpXpXpXpXpXpXpXpXpXpXpXpXpX",
"pXpXpXpXpXpXpX  o P  .%.W.7X|.XXXX X].7X7X7X).A.V.G.'.7XY.V.C.W.7X7X7X].}.XXXX.X].'.w.| ` 1     pXpXpXpXpXpXpXpXpXpXpXpXpXpXpXpX",
"pXpXpXpXpXpX    o ~ 5.q.!.7X].].].].[.7X7X'.7X9X9X9X7X'.7X9X9X7X'.7X7X[.].].].].7X'.j.2.%.2     pXpXpXpXpXpXpXpXpXpXpXpXpXpXpXpX",
"pXpXpXpXpXpX    o ! 4.0.!.7X7X7X7X7X7X7X7X7X7X7X7X7X7X7X7X7X7X7X7X7X7X7X7X7X7X7X7X'.h.<.$.1     pXpXpXpXpXpXpXpXpXpXpXpXpXpXpXpX",
"pXpXpXpXpXpX    o ! 4.0.!.7X7X7X7X7X7X7X7X7X7X7X7X7X7X7X7X7X7X7X7X7X7X7X7X7X7X7X7X'.h.<.$.1     pXpXpXpXpXpXpXpXpXpXpXpXpXpXpXpX",
"pXpXpXpXpXpX    o Q 2.9.!.7X7X7X7X7X7X7X7X7X7X7X7X7X7X7X7X7X7X7X7X7X7X7X7X7X7X7X7X'.h.,.#.1     pXpXpXpXpXpXpXpXpXpXpXpXpXpXpXpX",
"pXpXpXpXpXpX    o o.n.N.(.7X7X7X7X7X7X7X7X7X7X7X7X7X7X7X7X7X7X7X7X7X7X7X7X7X7X7X7X'.D.v.i.5     pXpXpXpXpXpXpXpXpXpXpXpXpXpXpXpX",
"pXpXpXpXpXpX    O r.rX7X7X'.7X7X7X7X7X7X7X7X7X7X7X7X7X7X7X7X7X7X7X7X7X7X7X7X7X7X7X7X7X9XI.q     pXpXpXpXpXpXpXpXpXpXpXpXpXpXpXpX",
"pXpXpXpXpXpX    O e.rX7X7X7X7X7X7X7X7X7X7X7X7X7X7X7X7X7X7X7X7X7X7X7X7X7X7X7X7X7X7X7X7X9XI.q     pXpXpXpXpXpXpXpXpXpXpXpXpXpXpXpX",
"pXpXpXpXpXpX    O e.rX7X7X7X7X7X7X7X7X7X7X7X7X7X7X7X7X7X7X7X7X7X7X7X7X7X7X7X7X7X7X7X7X9XI.q     pXpXpXpXpXpXpXpXpXpXpXpXpXpXpXpX",
"pXpXpXpXpXpX    O e.rX7X7X'.7X7X7X7X7X7X7X7X7X7X7X7X7X7X7X7X7X7X7X7X7X7X7X7X7X7X7X7X7X9XI.q     pXpXpXpXpXpXpXpXpXpXpXpXpXpXpXpX",
"pXpXpXpXpXpX% & ; w._.(.'.7X7X7X7X7X7X7X7X7X7X7X7X7X7X7X7X7X7X7X7X7X7X7X7X7X7X7X7X'.).(.J.i $ & pXpXpXpXpXpXpXpXpXpXpXpXpXpXpXpX",
"pXpXpXpX    n | | 4.e.s.^.7X7X7X7X7X7X7X7X7X7X7X7X7X7X7X7X7X7X7X7X7X7X7X7X7X7X7X7X'.v.w.q.X.| U +   pXpXpXpXpXpXpXpXpXpXpXpXpXpX",
"pXpXpXpX    C 6.4.<.>.9.!.7X7X7X7X7X7X7X7X7X7X7X7X7X7X7X7X7X7X7X7X7X7X7X7X7X7X7X7X'.g.>.,.2.6.` @     pXpXpXpXpXpXpXpXpXpXpXpXpX",
"pXpXpXpX    C 4.2.e.u.g./.7X7X7X7X7X7X7X7X7X7X7X7X7X7X7X7X7X7X7X7X7X7X7X7X7X7X7X7X'.m.y.y.5.4._ +     pXpXpXpXpXpXpXpXpXpXpXpXpX",
"pXpXpXpX    C 4.4.H._._.'.7X7X7X7X7X7X7X7X7X7X7X7X7X7X7X7X7X7X7X7X7X7X7X7X7X7X7X7X'._._.Q.w.4._ +     pXpXpXpXpXpXpXpXpXpXpXpXpX",
"pXpXpXpX    V 2.2.L.9X7X7X7X7X7X7X7X7X7X7X7X7X7X7X7X7X7X7X7X7X7X7X7X7X7X7X7X7X7X7X7X7X7X/.w.<.) +     pXpXpXpXpXpXpXpXpXpXpXpXpX",
"pXpXpXpX    K v.c.E.7X7X7X7X7X7X7X7X7X7X7X7X7X7X7X7X7X7X7X7X7X7X7X7X7X7X7X7X7X7X7X7X7X7X).N.v.&.#     pXpXpXpXpXpXpXpXpXpXpXpXpX",
"pXpXpXpX    _ rX7X7X7X7X7X7X7X7X7X7X7X7X7X7X7X7X7X7X7X7X7X7X7X7X7X7X7X7X7X7X7X7X7X7X7X7X7X7XrXh.$     pXpXpXpXpX            pXpX",
"pXpXpXpX    _ qX'.'.'.'.'.7X7X7X7X7X7X7X7X7X7X7X7X7X7X7X7X7X7X7X7X7X7X7X7X7X7X7X7X7X'.'.'.'.qXg.$     pXpXpXpXpX            pXpX",
"pXpXpXpX    J z.k.k.k.v.(.7X7X7X7X7X7X7X7X7X7X7X7X7X7X7X7X7X7X7X7X7X7X7X7X7X7X7X7X'.Z.j.k.k.z.$.#     pXpXpX  - } -.=.=.-.U     ",
"pXpXpXpX    V 2.,.,.,.9.!.7X7X7X7X7X7X7X7X7X7X7X7X7X7X7X7X7X7X7X7X7X7X7X7X7X7X7X7X'.h.>.,.,.2.) +     pXpX    ; N.uXtXrXiX$.    ",
"pXpXpXpX    C 4.2.6.7.r.!.7X7X7X7X7X7X7X7X7X7X7X7X7X7X7X7X7X7X7X7X7X7X7X7X7X7X7X7X'.l.6.7.2.4._ +     pXpX    - g.R.R.(.`.o.    ",
"pXpXpXpX    C 4.4.Z.R.E.`.7X7X7X7X7X7X7X7X7X7X7X7X7X7X7X7X7X7X7X7X7X7X7X7X7X7X7X7X'.!.R.P.q.4._ +     pXpXpXpXpXe r c 8.u.I     ",
"pXpXpXpX    V 2.2.L.9X7X7X'.7XqXqX9X'.7X7X7X7X7X7X7X7X7X7X7X7X7X7X7X7X'.7XqXqX9X'.7X7X9X(.w.2.) +     pXpXpXpXpX    6 &.4.H     ",
"pXpXpXpX    S i.u.U.7X7X7X7XR.z.l.J.7X7X7X7X7X7X7X7X7X7X7X7X7X7X7X7X7X7XW.x.l.G.7X7X7X7X(.h.u. .@     pXpXpXpXpX    9 8.i.I     ",
"pXpXpXpX    ( '.).`.7X7X7XqXt.: $ ` qX7X7X7X7X7X7X7X7X7X7X7X7X7X7X7X7XqXf., # Q 9X7X7X7X'.).`.s.$     pXpXpXpXpX    u U.7XO.    ",
"pXpXpXpX    _ tX9X7X'.7X7XrXw.O   ^ qX7XqXrXqX7X'.7X7X7X7X'.7XqXrXrX7XqXs.#   U 9X7X7X'.7X9XtXh.%     pXpXpXpXpX    i E.tX@.    ",
"pXpXpXpX    Y F.S.!.7X7X7XrXw.O   ^ qX`.e.+.:.E.7X7X7X7X7X7X'.t.+.;.R.rXs.#   U 9X7X7X7X_.G.D.4.#     pXpXpXpXpXA F _ ^.rX@.    ",
"pXpXpXpX    V 4.4.L.9X7X7XrXw.O   ^ qX).v   1 A.9X7X7X7X7X7X_.M   , C.tXs.#   U 9X7X7X7X/.e.2._ +             - b.qX7X7XrX@.    ",
"pXpXpXpX    C 5.4.L.9X7X7XrXw.O   ^ qX).v   1 A.9X7X7X7X7X7X_.M   , C.tXs.#   U 9X7X7X7X/.e.4._ +             - b.qX7X7XrX@.    ",
"pXpXpXpXpXpXt j l :.x.b.(.rXw.O   ^ qX).v   1 A.9X7X7X7X7X7X_.M   , C.tXs.#   U 9X'.A.l.a.Z g V O.#.#.#.#.! H Y H.qXS.P G n pXpX",
"pXpXpXpXpXpX    o Q 2.0.^.tXw.O   ^ qX).v   1 S.qX7X7X7X7X7X`.M   , C.tXs.#   U qX7Xh.,.#.1   d /.tXtXtXrXx.4.0.E.rXl.&     pXpX",
"pXpXpXpXpXpXpX  o R =.<.K.!.4.O   ^ qX).v   < v.W.R.R.R.R.R.Y.v   , C.tXs.#   L W.R.y.*...<   p J.E.R.R.R.u.&.:.F.Q.s.&     pXpX",
"pXpXpXpXpXpXpXpXpX4 5 7 y i 7     ^ qX).v   O e i u u u u u u =   , C.tXs.#   > i u 0 5 4 O   $ t u u u u 0 5 6 t u t pXpXpXpXpX",
"pXpXpXpXpXpXpXpXpX                / yX`.b                         , Z.uXd.#                                           pXpXpXpXpX",
"pXpXpXpXpXpXpXpXpX                H n.z.f                         ; 8.N.%.+                                           pXpXpXpXpX",
"pXpXpXpXpXpXpXpXpXpXpXpXpXpXpX    @ - = o     pXpXpXpXpXpXpXpX    . * - %       pXpXpXpXpXpXpXpXpXpXpXpXpXpXpXpXpXpXpXpXpXpXpXpX",
"pXpXpXpXpXpXpXpXpXpXpXpXpXpXpX                pXpXpXpXpXpXpXpX                  pXpXpXpXpXpXpXpXpXpXpXpXpXpXpXpXpXpXpXpXpXpXpXpX",
"pXpXpXpXpXpXpXpXpXpXpXpXpXpXpX                pXpXpXpXpXpXpXpXpX              pXpXpXpXpXpXpXpXpXpXpXpXpXpXpXpXpXpXpXpXpXpXpXpXpX",
"pXpXpXpXpXpXpXpXpXpXpXpXpXpXpXpXpXpXpXpXpXpXpXpXpXpXpXpXpXpXpXpXpXpXpXpXpXpXpXpXpXpXpXpXpXpXpXpXpXpXpXpXpXpXpXpXpXpXpXpXpXpXpXpX",
"pXpXpXpXpXpXpXpXpXpXpXpXpXpXpXpXpXpXpXpXpXpXpXpXpXpXpXpXpXpXpXpXpXpXpXpXpXpXpXpXpXpXpXpXpXpXpXpXpXpXpXpXpXpXpXpXpXpXpXpXpXpXpXpX",
"pXpXpXpXpXpXpXpXpXpXpXpXpXpXpXpXpXpXpXpXpXpXpXpXpXpXpXpXpXpXpXpXpXpXpXpXpXpXpXpXpXpXpXpXpXpXpXpXpXpXpXpXpXpXpXpXpXpXpXpXpXpXpXpX"
};
