/* XPM */
static char *result[] = {
/* columns rows colors chars-per-pixel */
"64 64 191 2 ",
"   c #010101",
".  c #0A0507",
"X  c #0A0907",
"o  c #0D0B0B",
"O  c #0D0709",
"+  c #110B0C",
"@  c #14130E",
"#  c #080C12",
"$  c #1F0F14",
"%  c #161415",
"&  c #1B1215",
"*  c #1B1A1A",
"=  c #1E1719",
"-  c #26141A",
";  c #231C1C",
":  c #291A1D",
">  c #30181F",
",  c #25231B",
"<  c #2E2A1F",
"1  c #29261D",
"2  c #0D1827",
"3  c #3C1E28",
"4  c #2E1920",
"5  c #242323",
"6  c #2C2C2C",
"7  c #2E2B20",
"8  c #312E22",
"9  c #3F212A",
"0  c #322D2E",
"q  c #353535",
"w  c #3C3B3B",
"e  c #3B3436",
"r  c #363225",
"t  c #44252F",
"y  c #423D2D",
"u  c #4B2632",
"i  c #582D3B",
"p  c #433C3D",
"a  c #4B323A",
"s  c #58313E",
"d  c #4B4533",
"f  c #534D3A",
"g  c #58523D",
"h  c #19314D",
"j  c #5F3140",
"k  c #663545",
"l  c #6A3748",
"z  c #763E50",
"x  c #434242",
"c  c #494545",
"v  c #4D4B4B",
"b  c #54494B",
"n  c #555353",
"m  c #5A5555",
"M  c #5D5B5B",
"N  c #675F47",
"B  c #7C4154",
"V  c #615C5D",
"C  c #6B6249",
"Z  c #7C7356",
"A  c #796F53",
"S  c #656363",
"D  c #6C6B6B",
"F  c #6B6767",
"G  c #736F6F",
"H  c #727171",
"J  c #7A7676",
"K  c #7C7B7B",
"L  c #86455B",
"P  c #817859",
"I  c #A97959",
"U  c #8E4C62",
"Y  c #914D63",
"T  c #984F67",
"R  c #9C546C",
"E  c #A4576E",
"W  c #AA5973",
"Q  c #AA5976",
"!  c #B14166",
"~  c #817C7C",
"^  c #BC627F",
"/  c #C25579",
"(  c #A99444",
")  c #928865",
"_  c #8D8261",
"`  c #AC9F76",
"'  c #A79B73",
"]  c #ADA278",
"[  c #B8AA7E",
"{  c #FFDB6A",
"}  c #FFC779",
"|  c #FFD370",
" . c #746490",
".. c #457ABE",
"X. c #527EC2",
"o. c #BE6381",
"O. c #FB4E87",
"+. c #FC598F",
"@. c #FC5D91",
"#. c #C36584",
"$. c #CE6B8B",
"%. c #C76887",
"&. c #DC7395",
"*. c #D57092",
"=. c #D06D8D",
"-. c #FE6C9D",
";. c #FE6698",
":. c #E27699",
">. c #E6799C",
",. c #EA7A9F",
"<. c #FE709F",
"1. c #ED7BA2",
"2. c #F27EA4",
"3. c #FE7BA6",
"4. c #FE7AA5",
"5. c #7F8080",
"6. c #569AEE",
"7. c #7B9EEF",
"8. c #6DA1F5",
"9. c #848383",
"0. c #8C8686",
"q. c #8D8A8A",
"w. c #908D8D",
"e. c #959393",
"r. c #979998",
"t. c #999999",
"y. c #9C9799",
"u. c #8E908F",
"i. c #AD959C",
"p. c #A2969A",
"a. c #B3939E",
"s. c #BA929F",
"d. c #B08A8C",
"f. c #BFB183",
"g. c #B993A0",
"h. c #A4A4A4",
"j. c #FF9C9B",
"k. c #FF969F",
"l. c #CBBD8C",
"z. c #C6B889",
"x. c #FFBB84",
"c. c #FFB28C",
"v. c #FFB785",
"b. c #FFA494",
"n. c #E6B79E",
"m. c #DB8CA6",
"M. c #D685B5",
"N. c #C788BC",
"B. c #E989A8",
"V. c #F680A7",
"C. c #FF8DA6",
"Z. c #F583AA",
"A. c #FF84AD",
"S. c #FF8BAC",
"D. c #FF93AD",
"F. c #FF9BAD",
"G. c #FF91A4",
"H. c #E989B8",
"J. c #F487B2",
"K. c #FE87B0",
"L. c #FF89B2",
"P. c #FFA3AD",
"I. c #FFA9AD",
"U. c #FFB3AE",
"Y. c #FFBCAE",
"T. c #FFBCB0",
"R. c #FFA9B0",
"E. c #D3C391",
"W. c #D9CA96",
"Q. c #D0C18F",
"!. c #E3CF9C",
"~. c #E4D39D",
"^. c #FFC5AE",
"/. c #FFCBAE",
"(. c #EBDAA2",
"). c #FFD5AF",
"_. c #FFDEAF",
"`. c #FFC3B1",
"'. c #FFDAB1",
"]. c #FEE3AF",
"[. c #FEEAAF",
"{. c #F6E4AA",
"}. c #FFE5B1",
"|. c #FFEDB0",
" X c #FFF0B3",
".X c #BB91CF",
"XX c #AB96D8",
"oX c #9499E2",
"OX c #C98FC7",
"+X c #DBDBDB",
"@X c None",
/* pixels */
"@X@X@X@X@X@X@X@X@X@X@X@X@X@X@X@X@X@X@X@X@X@X@X@X@X@X@X@X@X@X@X@X@X@X@X@X@X@X@X@X@X@X@X@X@X@X@X@X@X@X@X@X@X@X@X@X@X@X@X@X@X@X@X@X",
"@X@X@X@X@X@X@X@X@X@X@X@X@X@X@X@X@X@X@X@X@X@X@X@X@X@X@X@X@X@X@X@X@X@X@X@X@X@X@X@X@X@X@X@X@X@X@X@X@X@X@X@X@X@X@X@X@X@X@X@X@X@X@X@X",
"@X@X@X@X@X@X@X@X@X@X@X@X@X@X@X@X@X@X@X@X@X@X@X@X@X@X@X@X@X@X@X@X@X@X@X@X@X@X@X@X@X@X@X@X@X@X@X@X@X@X@X@X@X@X@X@X@X@X@X@X@X@X@X@X",
"@X@X@X@X@X@X@X@X@X@X@X@X@X@X@X@X@X@X@X@X@X@X@X@X@X@X@X@X@X@X@X@X@X@X@X@X@X@X@X@X@X@X@X@X@X@X@X@X@X@X@X@X@X@X@X@X@X@X@X@X@X@X@X@X",
"@X@X@X@X@X@X@X@X@X@X@X@X@X@X@X@X@X@X@X@X@X@X@X@X@X@X@X@X@X@X@X@X@X@X@X@X@X@X@X@X@X@X@X@X@X@X@X@X@X@X@X@X@X@X@X@X@X@X@X@X@X@X@X@X",
"@X@X@X@X@X@X@X@X@X@X@X@X@X@X@X@X@X@X@X@X@X@X@X@X@X@X@X@X@X@X@X@X@X@X@X@X@X@X@X@X@X@X@X@X@X@X@X@X@X@X@X@X@X@X@X@X@X@X@X@X@X@X@X@X",
"@X@X@X@X@X@X@X@X@X@X@X@X@X@X@X@X@X@X@X@X@X@X@X@X@X@X@X@X@X@X@X@X@X@X@X@X@X@X@X@X@X@X@X@X@X@X@X@X@X@X@X@X@X@X@X@X@X@X@X@X@X@X@X@X",
"@X@X@X@X@X@X@X@X@X@X@X@X@X@X@X@X@X@X@X@X@X@X@X@X@X@X@X@X@X@X@X@X@X@X@X@X@X@X@X@X@X@X@X@X@X@X@X@X@X@X@X@X@X@X@X@X@X@X@X@X@X@X@X@X",
"@X@X@X@X@X@X@X@X@X@X@X@X@X@X@X@X@X@X@X@X@X@X@X@X@X@X@X@X@X@X@X@X@X@X@X@X@X@X@X@X@X@X@X@X@X@X@X@X@X@X@X@X@X@X@X@X@X@X@X@X@X@X@X@X",
"@X@X@X@X@X@X@X@X@X@X@X@X@X@X@X@X@X@X@X@X@X@X@X@X@X@X@X@X@X@X, 1 , , - - - - - @X@X@X@X@X@X@X@X@X@X@X@X@X@X@X@X@X@X@X@X@X@X@X@X@X",
"@X@X@X@X@X@X@X@X@X@X@X@X@X@X@X@X@X@X@X@X@X@X@X@X@X@ @ @ + C ~.!.!.n.>.>.>.>.>.k + + + + @X@X@X@X@X@X@X@X@X@X@X@X@X@X@X@X@X@X@X@X",
"@X@X@X@X@X@X@X@X@X@X@X@X@X@X@X@X@X@X@X@X@X@X@X    Z Q.Q.Q.~.}.P.F.D.K.A.A.A.A.&.$.$.=.B     @X@X@X@X@X@X@X@X@X@X@X@X@X@X@X@X@X@X",
"@X@X@X@X@X@X@X@X@X@X@X@X@X@X@X@X@X@X@X@X@X@Xy Z Z z.}.T.T.T.U.A.b.v.v.G.A.A.S.A.A.A.-./ B B 3 @X@X@X@X@X@X@X@X@X@X@X@X@X@X@X@X@X",
"@X@X@X@X@X@X@X@X@X@X@X@X@X@X@X@X@X@X@X@X7 < Z |._.'.^.A.A.A.A.A.v.{ { k.1.$.$.V.A.A.+.;.3.A.z - @X@X@X@X@X@X@X@X@X@X@X@X@X@X@X@X",
"@X@X@X@X@X@X@X@X@X@X@X@X@X@X@X@X@X@Xo d W.(.(.}.F.S.S.A.A.A.A.A.S.C.C.2.U = ; R 2.A.A.-.@.3.Z.E   # % o @X@X@X@X@X@X@X@X@X@X@X@X",
"@X@X@X@X@X@X@X@X@X@X@X@X@X@X@X@X@X  A ~.|.|.|.}.D.A.A.A.A.A.A.A.A.A.2.i c 9. .d k 2.A.3.3.A.K.Q o F 9.D X @X@X@X@X@X@X@X@X@X@X@X",
"@X@X@X@X@X@X@X@X@X@X@X@X@X@X@X@X@ Z l.|.|.|.|.].^.F.A.A.A.A.A.A.A.K.2.3 x t.t.q t Z.A.K.K.A.K.Q o K h.K o @X@X@X@X@X@X@X@X@X@X@X",
"@X@X@X@X@X@X@X@X@X@X@X@X@X@X@X@X@ W.|.|.|.|.].).).I.A.A.A.A.A.A.K.2.o.a n t.r.v a #.%.#.%.%.%.Y 6 9.t.9.6 @X@X@X@X@X@X@X@X@X@X@X",
"@X@X@X@X@X@X@X@X@X@X@X@X@X@X@X@X8 W.|.]._.}.Y.S.S.A.A.A.S.2.&.&.:.Q ; H r.t.r.r.G & = & % = % w e.e.r.r.u.0   @X@X@X@X@X@X@X@X@X",
"@X@X@X@X@X@X@X@X@X@X@X@X@X@X  f ~.{.Y.S.D.D.S.A.A.A.A.A.A.E $ - $ : x 9.t.r.t.t.K c J F v K m M r.t.r.t.r.0   @X@X@X@X@X@X@X@X@X",
"@X@X@X@X@X@X@X@X@X@X@X@X@X@X  f }.U.F.3.A.A.A.J.XXOXA.A.L.*.R Y 3 * J e.t.t.t.t.e.K e.q.5.r.9.9.r.t.t.t.r.D x           @X@X@X@X",
"@X@X@X@X@X@X@X@X@X@X@X@X@X@Xr P ].D.A.A.A.4.4.J.oXXXM.^ ^ o.o.o.j 0 r.r.r.t.t.t.t.t.t.r.t.r.t.t.t.e.t.t.r.h.S           @X@X@X@X",
"@X@X@X@X@X@X@X@X@X@X@X@X@X  ' [.].D.A.A.A.+.@.A.A.XXX.% X X # X 0 V r.r.t.t.t.e.e.t.t.t.r.r.r.r.t.t.e.e.r.t.S   @X@X@X@X@X@X@X@X",
"@X@X@X@X@X@X@X@X@X@X@X@X@X  ]  X].D.A.A.A.+.+.A.Z.H.M.o.> 6 D j S q.r.r.t.h.+XD x e.t.t.r.r.r.r.h.+X9.q u.t.S   @X@X@X@X@X@X@X@X",
"@X@X@X@X@X@X@X@X@X@X@X@X    ]  X[./.P.A.A.<.4.A.A.A.A.V.9 w u.n K t.t.r.t.u.M 2 6 e.r.t.q.x J r.e.S 6 * u.r.9.M %         @X@X@X",
"@X@X@X@X@X@X@X@X@X@X@X  o d z.|.|.[./.F.A.A.A.A.A.A.A.V.9 w u.m K t.r.i.g.d.e 6 v r.r.9.M * v K u.w 6 c i.g.i.u.*         @X@X@X",
"@X@X@X@X@X@X@X@X@XX .   < ~.[.|.|.|.[./.S.A.A.A.A.A.Z.>.9 x u.M K r.y.B.A.Z.y.e.r.r.t.n % f 5 w r.r.e.p.Z.A.m.q.% @X@X@X@X@X@X@X",
"@X@X@X@X@X@X    6 J c * < (.|.[.[.[.^.D.A.A.A.A.A.A.$.t S 0.r.q.e.r.y.B.A.B.p.t.t.t.t.q. .q.K 5.r.r.r.i.Z.A.m.q.* @X@X@X@X@X@X@X",
"@X@X@X    % S x n e.V 5 < (.|.[.].U.D.A.A.A.A.A.A.A.#.+ H t.t.t.t.r.t.a.g.a.y.t.t.t.r.t.t.y.t.t.t.t.r.y.a.s.a.q.* @X@X@X@X@X@X@X",
"@X@X@X6 5 6 q.F n S w % < (.|.].^.S.A.A.A.j.j.A.A.A.#.+ H t.t.t.t.t.r.r.r.r.t.t.t.y.t.t.y.t.t.t.t.t.y.t.r.r.r.q.% @X@X@X@X@X@X@X",
"@X@Xo K K m 9.M 6       < (.[./.A.A.A.S.C.} } A.A.K.#.o H t.t.t.t.t.t.t.t.t.t.t.r.t.t.t.t.t.t.t.t.t.t.t.t.t.t.q.* @X@X@X@X@X@X@X",
"  % x 9.e.J 5 % X @X@X  < (.[./.A.A.A.G.| c.C.A.A.A.#.+ H t.t.t.t.t.t.t.t.t.t.t.t.t.t.t.t.t.t.r.t.t.t.t.t.t.e.~ % @X@X@X@X@X@X@X",
"  % b V v 5 @X@X@X@X@X@X7 (.|.^.A.A.K.C.b.G.A.K.A.A.#.+ H t.y.r.t.t.t.t.t.r.t.t.t.t.t.t.t.t.t.t.t.t.t.t.t.t.e.~ % @X@X@X@X@X@X@X",
"@X@ 6 6 *   @X@X@X@X@X@X7 (.|.).I.A.A.A.K.A.A.A.A.A.#.+ H t.t.t.t.r.t.t.t.t.t.t.t.t.t.y.t.t.t.t.t.r.t.t.t.e.w.~ % @X@X@X@X@X@X@X",
"@X@X    @X@X@X@X@X@X@X@X1 Q.{.[.].P.S.S.K.A.A.A.A.K.#.o H t.t.t.t.t.t.t.t.t.t.t.t.t.t.t.r.t.t.r.t.t.e.y.y.q.0.~ % @X@X@X@X@X@X@X",
"@X@X@X@X@X@X@X@X@X@X@X@X  , f.|.|.]._./.A.A.A.A.A.A.%.& D r.t.t.t.t.t.t.t.t.t.t.t.t.t.t.t.t.t.y.t.t.w.q.0.0.0.J % @X@X@X@X@X@X@X",
"@X@X@X@X@X@X@X@X@X@X@X@X    ]  X|.[.|.).S.A.A.A.A.A.V.o.a n r.t.t.t.t.t.t.t.t.t.t.t.t.y.y.y.y.e.q.q.w.0.0.0.S ; @X@X@X@X@X@X@X@X",
"@X@X@X@X@X@X@X@X@X@X@X@X    ]  X|.}.[.).A.A.A.A.A.A.A.Z.9 e e.u.w.e.w.e.w.w.w.e.w.e.w.e.e.w.e.w.0.0.0.0.0.w.M   @X@X@X@X@X@X@X@X",
"@X@X@X@X@X@X@X@X@X@X@X@X@X  ) (.[.|.[./.C.A.A.3.4.A.A.V.s p J 0.0.0.0.0.0.0.0.0.0.0.0.0.0.0.0.0.0.0.0.0.0.~ b   @X@X@X@X@X@X@X@X",
"@X@X@X@X@X@X@X@X@X@X@X@X@X  X N [.|.Y.S.A.A.-.O.O.-.A.A.1.Y * J 0.0.0.0.0.0.0.0.0.0.0.0.0.0.0.0.0.0.0.0.9.e X @X@X@X@X@X@X@X@X@X",
"@X@X@X@X@X@X@X@X@X@X@X@X@X    g |.|.U.A.A.A.4.-.-.4.A.A.A.&.Y e F q.q.q.0.0.0.0.0.0.0.0.0.w.0.0.q.q.M x ) 6   @X@X@X@X@X@X@X@X@X",
"@X@X@X@X@X@X@X@X@X@X@X@X@X@X  y _ (.U.A.A.A.A.A.A.A.A.A.A.A.V.L k x c J w.0.0.0.w.0.w.0.~ v H J c c * # x %   @X@X@X@X@X@X@X@X@X",
"@X@X@X@X@X@X@X@X@X@X@X@X@X@X@X@X@ E.`.D.K.A.A.A.A.A.A.A.A.Z.H.K.L - 4 V H G G H G G G G V o v v   2 2 2 .     @X@X@X@X@X@X@X@X@X",
"@X@X@X@X@X@X@X@X@X@X@X@X@X@X@X@X@ E.|./.S.A.A.A.A.A.A.A.A..X7.H.V.1.&.t o o o o o + + + o   X X # X.6.X.# @X@X@X@X@X@X@X@X@X@X@X",
"@X@X@X@X@X@X@X@X@X@X@X@X@X@X@X@X@Xd ] |./././././.P.A.A.A..X8.H.A.A.Z.! ! W W W W W Q I ( W Q W Q N. .h @X@X@X@X@X@X@X@X@X@X@X@X",
"@X@X@X@X@X@X@X@X@X@X@X@X@X@X@X@X@X@Xf ) {. X X|.|.U.A.A.A.H..XJ.A.A.A.-.;.-.A.A.A.S.v.x.c.C.K.L.J.U u @X@X@X@X@X@X@X@X@X@X@X@X@X",
"@X@X@X@X@X@X@X@X@X@X@X@X@X@X@X@X@X@X@X8 f.z.W.|.[.^.F.F.F.F.D.A.A.A.A.S.-.+.3.A.A.S.} c.A.A.*.%.o.: @X@X@X@X@X@X@X@X@X@X@X@X@X@X",
"@X@X@X@X@X@X@X@X@X@X@X@X@X@X@X@X@X@X@X@XX X C ].{.].].[.].].'.D.A.A.A.A.A.A.A.A.A.A.C.Z.3.Z.j . O @X@X@X@X@X@X@X@X@X@X@X@X@X@X@X",
"@X@X@X@X@X@X@X@X@X@X@X@X@X@X@X@X@X@X@X@X@X@X8 d y ] |.[.|.|.[.).P.A.A.A.A.A.A.A.A.A.A.Q t u > @X@X@X@X@X@X@X@X@X@X@X@X@X@X@X@X@X",
"@X@X@X@X@X@X@X@X@X@X@X@X@X@X@X@X@X@X@X@X@X@X@X@X@Xf C C N ' |. X).^.^./.R.K.A.R k l l u @X@X@X@X@X@X@X@X@X@X@X@X@X@X@X@X@X@X@X@X",
"@X@X@X@X@X@X@X@X@X@X@X@X@X@X@X@X@X@X@X@X@X@X@X@X@X@X      g f.f.f.f.f.f.d.^ o.i       @X@X@X@X@X@X@X@X@X@X@X@X@X@X@X@X@X@X@X@X@X",
"@X@X@X@X@X@X@X@X@X@X@X@X@X@X@X@X@X@X@X@X@X@X@X@X@X@X@X@X@X@XX X X X X X O O . @X@X@X@X@X@X@X@X@X@X@X@X@X@X@X@X@X@X@X@X@X@X@X@X@X",
"@X@X@X@X@X@X@X@X@X@X@X@X@X@X@X@X@X@X@X@X@X@X@X@X@X@X@X@X@X@X@X@X@X@X@X@X@X@X@X@X@X@X@X@X@X@X@X@X@X@X@X@X@X@X@X@X@X@X@X@X@X@X@X@X",
"@X@X@X@X@X@X@X@X@X@X@X@X@X@X@X@X@X@X@X@X@X@X@X@X@X@X@X@X@X@X@X@X@X@X@X@X@X@X@X@X@X@X@X@X@X@X@X@X@X@X@X@X@X@X@X@X@X@X@X@X@X@X@X@X",
"@X@X@X@X@X@X@X@X@X@X@X@X@X@X@X@X@X@X@X@X@X@X@X@X@X@X@X@X@X@X@X@X@X@X@X@X@X@X@X@X@X@X@X@X@X@X@X@X@X@X@X@X@X@X@X@X@X@X@X@X@X@X@X@X",
"@X@X@X@X@X@X@X@X@X@X@X@X@X@X@X@X@X@X@X@X@X@X@X@X@X@X@X@X@X@X@X@X@X@X@X@X@X@X@X@X@X@X@X@X@X@X@X@X@X@X@X@X@X@X@X@X@X@X@X@X@X@X@X@X",
"@X@X@X@X@X@X@X@X@X@X@X@X@X@X@X@X@X@X@X@X@X@X@X@X@X@X@X@X@X@X@X@X@X@X@X@X@X@X@X@X@X@X@X@X@X@X@X@X@X@X@X@X@X@X@X@X@X@X@X@X@X@X@X@X",
"@X@X@X@X@X@X@X@X@X@X@X@X@X@X@X@X@X@X@X@X@X@X@X@X@X@X@X@X@X@X@X@X@X@X@X@X@X@X@X@X@X@X@X@X@X@X@X@X@X@X@X@X@X@X@X@X@X@X@X@X@X@X@X@X",
"@X@X@X@X@X@X@X@X@X@X@X@X@X@X@X@X@X@X@X@X@X@X@X@X@X@X@X@X@X@X@X@X@X@X@X@X@X@X@X@X@X@X@X@X@X@X@X@X@X@X@X@X@X@X@X@X@X@X@X@X@X@X@X@X",
"@X@X@X@X@X@X@X@X@X@X@X@X@X@X@X@X@X@X@X@X@X@X@X@X@X@X@X@X@X@X@X@X@X@X@X@X@X@X@X@X@X@X@X@X@X@X@X@X@X@X@X@X@X@X@X@X@X@X@X@X@X@X@X@X",
"@X@X@X@X@X@X@X@X@X@X@X@X@X@X@X@X@X@X@X@X@X@X@X@X@X@X@X@X@X@X@X@X@X@X@X@X@X@X@X@X@X@X@X@X@X@X@X@X@X@X@X@X@X@X@X@X@X@X@X@X@X@X@X@X",
"@X@X@X@X@X@X@X@X@X@X@X@X@X@X@X@X@X@X@X@X@X@X@X@X@X@X@X@X@X@X@X@X@X@X@X@X@X@X@X@X@X@X@X@X@X@X@X@X@X@X@X@X@X@X@X@X@X@X@X@X@X@X@X@X",
"@X@X@X@X@X@X@X@X@X@X@X@X@X@X@X@X@X@X@X@X@X@X@X@X@X@X@X@X@X@X@X@X@X@X@X@X@X@X@X@X@X@X@X@X@X@X@X@X@X@X@X@X@X@X@X@X@X@X@X@X@X@X@X@X",
"@X@X@X@X@X@X@X@X@X@X@X@X@X@X@X@X@X@X@X@X@X@X@X@X@X@X@X@X@X@X@X@X@X@X@X@X@X@X@X@X@X@X@X@X@X@X@X@X@X@X@X@X@X@X@X@X@X@X@X@X@X@X@X@X"
};
