/* XPM */
static char *result[] = {
/* columns rows colors chars-per-pixel */
"50 50 181 2 ",
"   c #66362B",
".  c #68372C",
"X  c #67392F",
"o  c #6B3A2D",
"O  c #753E2F",
"+  c #6B3B32",
"@  c #703E34",
"#  c #6E4036",
"$  c #6E4138",
"%  c #764132",
"&  c #7E4430",
"*  c #72433A",
"=  c #79473C",
"-  c #7E4A3B",
";  c #7B4A44",
":  c #814631",
">  c #834935",
",  c #8B4C34",
"<  c #824C3A",
"1  c #914F33",
"2  c #8F5137",
"3  c #965234",
"4  c #9B5535",
"5  c #995539",
"6  c #A35A36",
"7  c #AB5E37",
"8  c #A85D38",
"9  c #AF6038",
"0  c #B56439",
"q  c #BA673A",
"w  c #BD693B",
"e  c #BB6737",
"r  c #844D4B",
"t  c #84514D",
"y  c #865551",
"u  c #8C5855",
"i  c #8B5955",
"p  c #925E5D",
"a  c #96565B",
"s  c #9A5B4A",
"d  c #A25C46",
"f  c #9B635C",
"g  c #BE6942",
"h  c #9B5960",
"j  c #A35C66",
"k  c #9C6768",
"l  c #AA606C",
"z  c #A16C6D",
"x  c #B86A67",
"c  c #AF6471",
"v  c #A46E70",
"b  c #B36675",
"n  c #BC6B79",
"m  c #AE777B",
"M  c #AF787D",
"N  c #A77073",
"B  c #B07A7F",
"V  c #E84A5C",
"C  c #C06A46",
"Z  c #C16C4C",
"A  c #C36E55",
"S  c #C56F59",
"D  c #C6705E",
"F  c #E8576A",
"G  c #E45C70",
"H  c #C77162",
"J  c #CA736D",
"K  c #C87263",
"L  c #DD677B",
"P  c #CC7474",
"I  c #CD757A",
"U  c #CE7A76",
"Y  c #CC6E68",
"T  c #E86275",
"R  c #7FB261",
"E  c #ECBF3A",
"W  c #EBC032",
"Q  c #83B265",
"!  c #88B26A",
"~  c #94B274",
"^  c #99B378",
"/  c #EDBF41",
"(  c #EDBE4C",
")  c #EDBD51",
"_  c #EEBC5F",
"`  c #EFBC6C",
"'  c #EFBB71",
"]  c #F0BB7B",
"[  c #B37C82",
"{  c #C9748A",
"}  c #D07785",
"|  c #D17886",
" . c #D2798B",
".. c #D9738C",
"X. c #D57B95",
"o. c #D77E98",
"O. c #D77B95",
"+. c #EB7689",
"@. c #4593CE",
"#. c #4F95CE",
"$. c #5596CE",
"%. c #5D97CD",
"&. c #5F98CD",
"*. c #6399CD",
"=. c #6B9ACD",
"-. c #719CCD",
";. c #BC848B",
":. c #ADB48A",
">. c #A5B383",
",. c #B6B492",
"<. c #BDB498",
"1. c #D7858D",
"2. c #C38A94",
"3. c #CB8C99",
"4. c #C88B96",
"5. c #D98597",
"6. c #DA849D",
"7. c #D88999",
"8. c #CB919C",
"9. c #EF899C",
"0. c #EF8699",
"q. c #C0AF99",
"w. c #C4B49E",
"e. c #F2B99D",
"r. c #EEB291",
"t. c #DC87A0",
"y. c #DE8CA3",
"u. c #D79AA9",
"i. c #DA9CB5",
"p. c #E08FA7",
"a. c #F08EA1",
"s. c #E391A6",
"d. c #E294AB",
"f. c #E998AE",
"g. c #F195A7",
"h. c #E69BB1",
"j. c #E89FB4",
"k. c #F19DB0",
"l. c #DCA0AE",
"z. c #CAB5A4",
"x. c #C7B5A1",
"c. c #D2B5AA",
"v. c #DFA3B2",
"b. c #DEB6B5",
"n. c #F3B8A9",
"m. c #E1A5B4",
"M. c #E9A1B6",
"N. c #EBA5BA",
"B. c #E6A9B9",
"V. c #ECABBE",
"C. c #E4A8B7",
"Z. c #F3ABBE",
"A. c #F2A4B7",
"S. c #E4B6BB",
"D. c #E8B6BF",
"F. c #F3B7B5",
"G. c #F4B7BC",
"H. c #849FCC",
"J. c #88A1CC",
"K. c #9CA2CA",
"L. c #A6A5CA",
"P. c #B9ABCB",
"I. c #C4ACCA",
"U. c #CBAECA",
"Y. c #C2A7C6",
"T. c #D1AFCA",
"R. c #D2ACC7",
"E. c #DAB1CA",
"W. c #D5B1CB",
"Q. c #EEADC1",
"!. c #F1AEC2",
"~. c #EDB3C3",
"^. c #E2B2C9",
"/. c #EBB5C9",
"(. c #F3B4C6",
"). c #F4B8C5",
"_. c #F5B6CA",
"`. c #F8B7C9",
"'. c #F6B8CB",
"]. c #F8BACE",
"[. c None",
/* pixels */
"[.[.[.[.[.[.[.[.[.[.[.[.[.[.[.[.[.[.[.[.[.[.[.[.+ + + + + + + + X + # [.[.[.[.[.[.[.[.[.[.[.[.[.[.[.",
"[.[.[.[.[.[.[.[.[.[.[.[.[.[.[.[.[.[.[.[.[.[.[.$ X X X X     X   X   o [.[.[.[.[.[.[.[.[.[.[.[.[.[.[.",
"[.[.[.[.[.[.[.[.[.[.[.[.[.[.[.[.[.[.$ $ # # ; k m M m M M M m m M M m y # # $ # [.[.[.[.[.[.[.[.[.[.",
"[.[.[.[.[.[.[.[.[.[.[.[.[.[.[.[.[.X   X     X [ (.(.(.(.(.(.(.(.(._.C.;         X [.[.[.[.[.[.[.[.[.",
"[.[.[.[.[.[.[.[.[.[.[.[.[.[.[.[.[.y y t t t y ;._._._._./.T.E._.'.'.B.k r t t t t y [.[.[.[.[.[.[.[.",
"[.[.[.[.[.[.[.[.[.[.[.[.[.+ + X ; 8.v.v.v.v.v.Q.(.'._._.I.*.H.^.'._.(.C.m.m.m.m.m.z + [.[.[.[.[.[.[.",
"[.[.[.[.[.[.[.[.[.[.[.[.[.@ + + ; u.].'.].'.'.'.'.(._._.P.@.=.^._.(.'.].'.'.].'.(.N + * [.[.[.[.[.[.",
"[.[.[.[.[.[.[.[.[.[.[.# u ;.8.;.4.V.]._._._.(.'.'.'.'._.P.@.-.^.'.].(.(.'.(._._.(.3.b a # [.[.[.[.[.",
"[.[.[.[.[.[.[.[.[.[.[.  y B.].'._._._._.'._._._.'.(._.(.P.@.-.^.'.'.).'.'._.'._._.d.o.j o + [.[.[.[.",
"[.[.[.[.[.[.[.[.[.[.i k [ Q.'.(._._._._._._.'._.'.'._.'.T.J.L./.(.'.~.c.x.x.x.D._.d.X.x , < [.[.[.[.",
"[.[.[.[.[.[.[.[.[.X p B.~.(._.'._.'.].].'._._._.'.'.'._.(././._._.'.D.^ Q Q ! z._.d.X.J q 4 o + [.[.",
"[.[.[.[.[.[.[.[.[.; z ~._._.'.(.(.Z.A.A.A.!._._._.(.(.Q.!._.'.'.(.'.D.>.~ ~ ^ c._.d.o.J g 4 o + [.[.",
"[.[.[.[.[.[.[.+ k u.C.(.(.'._.'.Z.+.F T T g.'._.'.'.N.6.d._._._._._.(.S.b.b.b.~._.d.X.P w 4 o + [.[.",
"[.[.[.[.[.[.# . z (.].(._.'.(.'.Z.G V V V a._._.(.(.h.O.y./.(._._._._._._._.'.'._.d.X.J w 4 o + [.[.",
"[.[.[.[.[.$ z ;.8.(.'.'.'.(.'.'.(.g.0.0.9.s.d.d.d.d.1.H x z [ Q._._.F.r.] F._._._.d.X.J w 0 4 3 = $ ",
"[.[.[.[.+ + [ _.].'.(.'.(.].].(.(._.`.`.(.d.X.X.X.o.J w 6   u B.`.`.F.) / e._._._.d.X.P w w w 6 o o ",
"[.[.[.[.+ X [ (.'._.`._./.P.I./.`._.(.V.M.1.I P I I D w 6   u M.'._.F.) / e._.Q.M.y.X.P w w w 6 o X ",
"[.[.[.[.+ X [ (._._._.`.I.*.=.E.`._.(.p.5.H w C g w w w 6   u B.'._.G.( / e.(.s.o.o.X.J w w w 8 o . ",
"[.[.[.[.; ; ;.(._.'._.`.I.$.%.R.(.(.Z.6.| A w w w w w w 6 . u C.'._.G._ ) n.(.p.X.X. .J w w w 6 O . ",
"[.[.# $ m u.C._._._.`.`.I.$.%.E.(.d.7.J Z C w w w w w w 6 . u C.'.(.(.F.n.).(.p.X.P g g w e w 8 o X ",
"[.[.+ + ;.].'._._.'._.`.I.$.*.E.!.6. .A e w w w w w w w 4   u M.'._._.'._._.(.y.X.D q w w w w 6 o X ",
"[.[.+ + ;.'._._._._._._.E.L.L.i.s.U H C e w w w w w 7 1 s m 2.~.'._._._._.j.f.6.X.D q w w w w 8 O . ",
"[.[.+ X ;._._._.'._._._._._.Q.6. .Z w w w w w w w w 3 . p ~.(.(._.'.'.'.!.y.X.X.X.D q w w w g 6 o X ",
"[.[.r r 4._._._._._._.'._._.Q.6. .Z w w w w w w w w 3 . p ~._._./.U.U./.!.y.X.{ I S q q w w w 8 o X ",
"+ @ b { h._._.'.'._._._._._.Q.t. .Z w e w w w w w w 3   p Q._.`.W.=.*.W.(.p.X.D g w w w w w w 6 % . ",
"+ @ b o.j._.~.~.~.'._._._.(.V.5.} Z e w w 0 0 0 0 0 5 @ k ~././.U.*.%.R.Q.p...S w w w w w q 0 6 # X ",
"+ + b o.M._.z.>.w.~.'.'.V.y.7.K A w w w q 3 : : : & f 4.u.(.T.J.H.P.Y.u.p.o.X.S q w w w w 8 > > [.[.",
"+ + b o.M.(.,.R :.).(.'.V.5. .g w w w w w :         z (.]._.I.$.%.E.!.t...X.X.S w w w w w 4 X X [.[.",
"o @ b o.j.(.,.Q :./.'.'.!.h.7.d 3 1 3 3 5 f v v v v 2.(.'._.E.K.K.i.f.o.X.U J Z w w w w w 6 o + [.[.",
"o + b o.M.(.,.R :.~.'.(.(.'.u.;         + ;._.(._./.'.(._._._._.Q.6.X.o. .A e w w w w w w 4 o X [.[.",
"+ + b o.f.V.<.^ <.).'.'.'._.m.f r t r r y 8.'.(._._.]._.].(.~.Q.j.5.X. .I Z w w w w w 0 9 3 # $ [.[.",
"+ + b o.o.6.i.S./.(.(.(.'.'.(.m.m.m.l.l.v.~.(.'.'.(.(.].(._.V.y.5.o. .A Z w w w w w w 4 % % [.[.[.[.",
"X @ b O.X.X.d._.'._.(.!.(.(.(.).'.'._._.!.`._._._._._.!._.(.N.o.X.X.} Z w w w w w w w 3 o + [.[.[.[.",
"+ + b X.X.X.h._._._.n.' ' ` ] G._.'.!.0.+.k._._._._.N.d.p.p.t.o. .K A g w w w w w w w 3 . + [.[.[.[.",
"+ @ b o.X.X.h._._.'.n.E W W ( F.'.'.(.T V a.'.'.'.'.j.o.X.X.X.X.} g q w w w w w w w w 3 o # [.[.[.[.",
"* @ j c { o.y.j.j.j.r.] ` ` ] G.'.'.!.+.G +.a.f.j.j.p.X. .P P P J g w w w w w w w 7 4 2 # [.[.[.[.[.",
"[.[.@ @ l o.O.o.o.o.y.(.).).).).(.'.(.y.X.G V T o.o.o.o.I g w w w w w w w w w w w , o # [.[.[.[.[.[.",
"[.[.+ X j o.X.O.O.o.y.V.Z.V.!.~.Q.Q.V.t.X.L F L }  .| } J w w w w w w w w w q 0 9 , + [.[.[.[.[.[.[.",
"[.[.+ + c o.o.O.O.X.o.6.6.6.6.6.6.6.t.X.X.....K Z Z Z Z Z w w w w w w w w w q 1 % - [.[.[.[.[.[.[.[.",
"[.[.+ + j O.X.O.X.X.X.X.X.X.X.o.X.X.X. .X.X. .K w q q e e w w w w w w w w q q : . [.[.[.[.[.[.[.[.[.",
"[.[.[.[.a a n o.O.X.X.X.X.X.X.X. .J K H H K H Z w w w w w w w w w w w w q 3 , < [.[.[.[.[.[.[.[.[.[.",
"[.[.[.[.+ X h o.X.X.X.o.X.o.X.o. .Z w w w q w w w w w w w w w w w w w w 0 & X [.[.[.[.[.[.[.[.[.[.[.",
"[.[.[.[.[.+ h b n I I I I I I I I C e w w w e w w w w w w w w w q 6 6 6 6 > + [.[.[.[.[.[.[.[.[.[.[.",
"[.[.[.[.[.[.* + 2 w g w g w g g w w w w w w w w q w w w w w w w 0 O . o + [.[.[.[.[.[.[.[.[.[.[.[.[.",
"[.[.[.[.[.[.[.+ > 0 0 0 0 0 0 q w w w w w w w w w w q 0 0 0 0 0 6 @ o o + [.[.[.[.[.[.[.[.[.[.[.[.[.",
"[.[.[.[.[.[.[.[.- & & & & & > 0 w w w w w w w w w w 6 : & & & & > [.[.[.[.[.[.[.[.[.[.[.[.[.[.[.[.[.",
"[.[.[.[.[.[.[.[.[..         O 9 w w w w w w w q w w 3 o X     X + [.[.[.[.[.[.[.[.[.[.[.[.[.[.[.[.[.",
"[.[.[.[.[.[.[.[.[.$ # # # # = 3 3 3 3 3 3 3 3 3 3 3 , # # $ + # [.[.[.[.[.[.[.[.[.[.[.[.[.[.[.[.[.[.",
"[.[.[.[.[.[.[.[.[.[.[.[.[.[.[.+ o . X   X X     X X + [.[.[.[.[.[.[.[.[.[.[.[.[.[.[.[.[.[.[.[.[.[.[.",
"[.[.[.[.[.[.[.[.[.[.[.[.[.[.[.+ X X X + o X X o X + # [.[.[.[.[.[.[.[.[.[.[.[.[.[.[.[.[.[.[.[.[.[.[."
};
