/* XPM */
static char *result[] = {
/* columns rows colors chars-per-pixel */
"64 64 119 2 ",
"   c #F8C984",
".  c #F8C883",
"X  c #F8C985",
"o  c #F8C986",
"O  c #F7C884",
"+  c #F8CA87",
"@  c #F8CA89",
"#  c #F8CB8B",
"$  c #F8CD8E",
"%  c #F7C883",
"&  c #F8C884",
"*  c #F8CA86",
"=  c #F8CC8C",
"-  c #F8CD90",
";  c #F6C683",
":  c #F6C583",
">  c #F7C783",
",  c #F8CA88",
"<  c #F8CB89",
"1  c #F5C282",
"2  c #F4C082",
"3  c #F5C182",
"4  c #F6C483",
"5  c #F7C683",
"6  c #F8C983",
"7  c #F8CB8C",
"8  c #F4BF82",
"9  c #F3BB82",
"0  c #F2B882",
"q  c #F3B982",
"w  c #F4BD82",
"e  c #F5C183",
"r  c #F8CF93",
"t  c #F8D095",
"y  c #F8CF94",
"u  c #F1B482",
"i  c #F0B182",
"p  c #F1B282",
"a  c #F2B782",
"s  c #F6C383",
"d  c #F7C984",
"f  c #F8D198",
"g  c #F8D29B",
"h  c #F8D29A",
"j  c #F8CF92",
"k  c #F0AF82",
"l  c #F0B082",
"z  c #F5BF82",
"x  c #F8CC8D",
"c  c #F8D096",
"v  c #F8D199",
"b  c #F8D197",
"n  c #F8CE90",
"m  c #F1B582",
"M  c #F4BC82",
"N  c #F6C283",
"B  c #F8CB8A",
"V  c #F8CE92",
"C  c #F8CE91",
"Z  c #F2B682",
"A  c #F4BE82",
"S  c #F8C987",
"D  c #F4BF83",
"F  c #F8C882",
"G  c #F8C885",
"H  c #F8CA8A",
"J  c #F8CE93",
"K  c #F8CC8E",
"L  c #F8D29C",
"P  c #F8C782",
"I  c #F8D19A",
"U  c #F8D39E",
"Y  c #F8D39F",
"T  c #F8CC8F",
"R  c #F8CD8F",
"E  c #F8CF95",
"W  c #F8CD91",
"Q  c #F8D097",
"!  c #F5C083",
"~  c #F4BD83",
"^  c #F4BE83",
"/  c #F3BA83",
"(  c #F2B683",
")  c #F2B783",
"_  c #F3BB83",
"`  c #F5C283",
"'  c #F7C682",
"]  c #F3B882",
"[  c #F3B983",
"{  c #F7C583",
"}  c #F3B883",
"|  c #F1B382",
" . c #F2B582",
".. c #F6C382",
"X. c #F3BC82",
"o. c #F6C783",
"O. c #F6C482",
"+. c #F5C382",
"@. c #F5C082",
"#. c #F2B482",
"$. c #F5C383",
"%. c #F0B083",
"&. c #F0AF83",
"*. c #F0B282",
"=. c #F3BA82",
"-. c #F0AE82",
";. c #F5BF83",
":. c #F4BC83",
">. c #F8CC8B",
",. c #F7C983",
"<. c #F5C482",
"1. c #F6C682",
"2. c #F8D098",
"3. c #F8D39D",
"4. c #F8D19B",
"5. c #F8D29D",
"6. c #F2B883",
"7. c #F2B583",
"8. c white",
/* pixels */
"                                    . . . .   X o X   . .                                                                       ",
"      O O O O           O O O O     . . . .   + @ +   . .                 . . . . . . . . . . .                                 ",
"      O O O O           O O O O     . . . . o # $ # X . .                 . . . . . . . . . . .                                 ",
"  O O O O % % % % % % % % % O O O O . . . & * = - # X . .                 . . . . . . . . . . .                                 ",
"  O O O O % % % ; : ; > % % O O O O . . . & X , < +   . .                 . . . X o o o X & . .                                 ",
"  O O % % % > : 1 2 3 4 5 % % % O O 6 6 .             .                   . .   + # 7 # , X . .                                 ",
"  O O % % > 4 8 9 0 q w e 5 % % O O       6 . . . . .                     . . X = r t y $ * . .                                 ",
"      % % : 8 q u i p a w s > % d                                         . . X $ f g h j + . .                                 ",
"      % ; 1 9 u i k l p 0 z 4 >                                           . . X x c v b n + . .                                 ",
"      % : 2 0 i k l k l m M N >                                           . .   B - V C = o . .                                 ",
"      % ; 3 q p l k k i Z A s >                                           . . & S B # B ,   . .                                 ",
"      % > 4 w a p l i m 9 3 ; %                                           . . . . & & & & . . .     . . . . . .                 ",
"  O O % % 5 e w 0 m Z 9 D 4 > % O O                                       . . . . F F F . . . .     . . . . . . .               ",
"  O O % % % 5 s z M A 3 4 > % % O O                                       . . . . . . . . . . .     . . . . . . .               ",
"  O O O O % % > 4 N s ; > % O O O O                                                             . . & G X o X & . . .           ",
"  O O O O % % % > > > % % % O O O O                                                             . . & , B # H o . . .           ",
"      O O O O d         O O O O                                                                 . . & , # 7 B S . . .           ",
"      O O O O           O O O O                                                                 . . . o , , + X . . .           ",
"                                                                                                . . .   X X X & . . . . . . . . ",
"                &                                                                               . . . . . . . . . . . . . . . . ",
"  . . . . . . .                                                                                     . . . . . . . . . . . . . . ",
"  . . . . . . 6                                                                                     . . . . . . . . . . . & & & ",
". . . . . . . . . .                                                                                 . . . . . . . . .   * , , , ",
". . . & & & & . . .                                                                                         . . . . G @ $ C V J ",
"F . & X S S G . . .                                                                                         . . . & , K c h L L ",
"P . G S # # S . . .                                                                                         . . . o 7 J I U Y Y ",
"P . X , x T @ . . .                                                                                         . . . , R E g U U U ",
". . G S H # S . . .                                                                                         . . . S # W Q I g g ",
". . . . & G & . . .                                                                                         . . . & X B - y t c ",
"  . . . F F . .                                   . . . . . . . .                                               . . . o B x $ R ",
"  . . . . . . .                                 . . . . F F . . .                                               . . . & X X o o ",
"                                            . . . . & G o o X & & . .                                                 . . F F F ",
"                                            . . . & o @ x x B + & . .                                                 . . . . . ",
"                                            . . . G , K y y R B X . .                                                           ",
"                                            . . . X < V h h y x o F .                                                           ",
"& O O O O O O O                             . . . X < V h h y x o F .                                                           ",
"& O O d O O O O                             . . . & + x V V K @ G . .                                                           ",
"> > ; ; ; ; > %                             . . . & G + < < , o & . .                                                           ",
"> : ! ~ ^ e : %                             . . . . & & X X G & . . .                                                           ",
"5 N / ( ) _ ` %                             .   . . . . . . . . . .                         & & & &             & & & & &       ",
"' 3 ] p u [ e %                                   . . . . . . . .                           & & & &               & & & &       ",
"{ e } |  ./ e %                                 . . . . . . . . .                         & & & % % % % % % % % % % % & &       ",
"' ..A 9 X.D 4 %                                                                       & & & & & % % % % > > % % % % % & & & &   ",
"> o.: 4 O.: > %                                                                       & & & & & % % > 5 { { { 5 > % % & & & &   ",
"% % % % % % % %                                                                       & & & % % > : +.@.w w A 3 4 ; % % % & &   ",
"% % % % % % % %                                                                         & & % % ; e w a #.|  .q ^ $.o.% % & &   ",
"                &                                             . . . . . .                   % > +.X.a | %.&.i u 0 8 O.> %       ",
"                                                              . . . . . .                   > 4 8 a *.i %.%.l i | =.3 5 %       ",
"                                                          . . . & & & & . . . .             > 4 A m l l l l l k i 0 @.: %       ",
"                                                          . . & o S S o & . . .             > : 8 a p l k -.k l | =.1 ; %       ",
"                                                          . . & , B @ S & . . .         d O % ; ` _ Z p l l i | a ^ 4 > % O O   ",
"                                                          . . G @ # B , G . . .       O O O % % : e w ] Z  .Z =.^ $.5 % % O O   ",
"                                                          . . G , B B , X . . .       O O O O O > : $.;.:.:.~ ! 4 5 % O O O O   ",
"                                                          . . & X o o X & . . .       O O O O O % > 5 4 s s s : > % % O O O O   ",
"                                                            . . . . . . . .               O O O % % % % % % % % % % % O O       ",
"                                                              . . . . . .                   O O O O               O O O O       ",
"                                                              . . . . . .                   O O O O             O O O O O       ",
"    . . . . . . . 6                                                                                                             ",
". .               & . . . .                                               % % % % % % % % %                                     ",
". . & o < >.B , o . . . . .                                               ,.,.,.,.,.% % % %                                     ",
". . X @ C t r R @ & P . . .                                               % % % % % % % % %                                     ",
". o B - Q g I E T , & . . .                                           O d % : ` 3 3 <.1.% %                                     ",
"X @ C 2.L 3.3.4.E $ , & F .                                           O O ; e _ q q A : % %                                     ",
"o # y L U Y Y 5.2.C B & F .                                           O O ; ^ 6.#.7.9 4 % %                                     "
};
